<?xml version="1.0" standalone="no"?><!DOCTYPE svg PUBLIC "-//W3C//DTD SVG 1.1//EN" "http://www.w3.org/Graphics/SVG/1.1/DTD/svg11.dtd"><svg t="1718785136163" class="icon" viewBox="0 0 1024 1024" version="1.1" xmlns="http://www.w3.org/2000/svg" p-id="36340" xmlns:xlink="http://www.w3.org/1999/xlink" width="200" height="200"><path d="M80.1 717.1v192.4M80.1 924.5c-8.3 0-15-6.7-15-15V717.1c0-8.3 6.7-15 15-15s15 6.7 15 15v192.5c0 8.2-6.7 14.9-15 14.9zM959.9 717.1v192.4M959.9 924.5c-8.3 0-15-6.7-15-15V717.1c0-8.3 6.7-15 15-15s15 6.7 15 15v192.5c0 8.2-6.8 14.9-15 14.9zM190.1 685.4v110M190.1 810.4c-8.3 0-15-6.7-15-15v-110c0-8.3 6.7-15 15-15s15 6.7 15 15v110c0 8.3-6.8 15-15 15zM849.9 685.4v110M849.9 810.4c-8.3 0-15-6.7-15-15v-110c0-8.3 6.7-15 15-15s15 6.7 15 15v110c0 8.3-6.7 15-15 15zM300 651.8v42.5M300 709.3c-8.3 0-15-6.7-15-15v-42.5c0-8.3 6.7-15 15-15s15 6.7 15 15v42.5c0 8.2-6.7 15-15 15z" fill="#B5CCCB" p-id="36341"></path><path d="M739.9 651.8v42.5M739.9 709.3c-8.3 0-15-6.7-15-15v-42.5c0-8.3 6.7-15 15-15s15 6.7 15 15v42.5c0 8.2-6.7 15-15 15z" fill="#B5CCCB" p-id="36342"></path><path d="M761 926.7L586.6 818.2c-10.9-6.8-17.4-18.5-17.4-31.3l-0.1-246.5c0-6.9 3.3-13.5 8.9-17.7 5.6-4.1 12.8-5.4 19.5-3.4l383.6 115.8v-84.9c0-0.6-0.2-1.1-0.6-1.5l-392.1-195-0.9-0.6c-11.5-7.3-18.4-19.8-18.4-33.5v-110c0-56-19.6-140.8-49.1-140.8-29.6 0-49.2 84.7-49.2 140.8v110c0 13.6-6.9 26.1-18.4 33.5l-0.9 0.6-0.9 0.5L59.4 548.8c-0.4 0.4-0.6 0.9-0.6 1.5v84.9l383.6-115.8c2.1-0.6 4.2-0.9 6.3-0.9 4.7 0 9.3 1.5 13.1 4.3 5.6 4.1 8.9 10.7 8.9 17.6l0.1 246.8c0 12.7-6.4 24.3-17.1 31.1L278.9 929.7c-3.8 2.4-6.1 6.6-6.1 11.1v14.5L428 908.5c13.5-4.1 27.4-6.1 41.5-6.1h101.3c14.1 0 28.1 2.1 41.6 6.1l154.8 46.8v-17.4c0-4.6-2.3-8.8-6.2-11.2z" fill="#F44E38" p-id="36343"></path><path d="M789.9 985.3v-39.4c0-18.5-9.4-35.4-25.1-45.2l-173-107.5-0.1-249L972.1 659c7.4 2.2 15.5 0.8 21.7-3.8 6.2-4.6 9.9-12 9.9-19.7v-79.7c0-14.4-7.4-27.8-19.5-35.6l-0.9-0.6L591.7 325V215.3c0-18.8-3-61.1-14.4-100.3-18.6-63.9-48.8-79.3-71.9-80.4l8.8 35.9c29.5 0 37.5 88.8 37.5 144.8v110c0 13.6 6.9 26.2 18.4 33.5l0.9 0.6 392.7 195.3V610.5c0 2.2-2.1 3.7-4.1 3.1L580.1 498.9c-6.6-2-13.9-0.7-19.5 3.4s-8.9 10.7-8.9 17.7l0.1 275c0 12.8 6.5 24.5 17.4 31.3l174.4 108.4c3.9 2.4 6.2 4.1 6.2 8.7v19.9l40.1 22z" fill="#B5CCCB" p-id="36344"></path><path d="M1001.5 514.8l-0.9-0.6-183.2-91.1c3.2-5.8 4.9-12.5 4.9-19.6 0-22.8-18.5-41.2-41.2-41.2-16.7 0-31 9.9-37.5 24.1L609 319.5V209.8c0-18.8-3-61.1-14.4-100.3C575.3 43 543.4 29 520 29c-23.4 0-55.4 14-74.7 80.5-11.4 39.2-14.4 81.5-14.4 100.3v109.6l-134.5 66.9c-6.5-14.2-20.8-24.1-37.5-24.1-22.8 0-41.2 18.5-41.2 41.2 0 7.1 1.8 13.7 4.9 19.6L40.2 513.7l-1 0.5-0.9 0.6c-12.2 7.8-19.5 21.1-19.5 35.6V656c0 7.7 3.7 15.1 9.9 19.7s14.3 6 21.7 3.8l380.4-114.8 0.1 220.8L257.4 896c-15.4 9.8-24.6 26.6-24.6 44.9v36.5c0 7.5 3.6 14.6 9.6 19 4.1 3.1 9.1 4.7 14.1 4.7 2.3 0 4.6-0.3 6.8-1l176.3-53.2c9.7-2.9 19.8-4.4 29.9-4.4h30.6c0.8 10.3 9.4 18.4 19.9 18.4s19.1-8.1 19.9-18.4h30.9c10.2 0 20.3 1.5 30 4.4l175.8 53.2c7.1 2.2 15 0.8 21-3.6s9.6-11.5 9.6-19v-39.4c0-18.5-9.4-35.4-25.1-45.2l-173-107.5-0.1-220.5 380.4 114.8c7.4 2.2 15.5 0.8 21.7-3.8 6.2-4.6 9.9-12 9.9-19.7V550.3c0.1-14.5-7.2-27.8-19.5-35.5z m-20.4 120.4L597.4 519.4c-6.6-2-13.9-0.7-19.5 3.4s-8.9 10.7-8.9 17.7l0.1 246.5c0 12.8 6.5 24.5 17.4 31.3L761 926.7c3.9 2.4 6.2 6.6 6.2 11.2v17.4l-154.8-46.8c-13.5-4.1-27.5-6.1-41.6-6.1H540v-21.8c0-11-9-20-20-20s-20 9-20 20v21.8h-30.5c-14.1 0-28 2.1-41.5 6.1l-155.3 46.9v-14.5c0-4.5 2.3-8.7 6.1-11.1l174.9-111.5c10.7-6.8 17.1-18.4 17.1-31.1l-0.1-246.8c0-6.9-3.3-13.5-8.9-17.6-3.8-2.8-8.5-4.3-13.1-4.3-2.1 0-4.3 0.3-6.3 0.9L58.8 635.2v-84.9c0-0.6 0.2-1.1 0.6-1.5l391.2-194.5 0.9-0.5 0.9-0.6c11.5-7.3 18.4-19.8 18.4-33.5v-110c0-56 19.6-140.8 49.2-140.8 29.5 0 49.1 84.7 49.1 140.8v110c0 13.6 6.9 26.1 18.4 33.5l0.9 0.6 392.1 195c0.4 0.4 0.6 0.9 0.6 1.5v84.9z" fill="#2F2E38" p-id="36345"></path></svg>