<?xml version="1.0" standalone="no"?><!DOCTYPE svg PUBLIC "-//W3C//DTD SVG 1.1//EN" "http://www.w3.org/Graphics/SVG/1.1/DTD/svg11.dtd"><svg t="1727336450463" class="icon" viewBox="0 0 1024 1024" version="1.1" xmlns="http://www.w3.org/2000/svg" p-id="62861" xmlns:xlink="http://www.w3.org/1999/xlink" width="200" height="200"><path d="M738.015208 291.725649c-37.417788 13.106979-53.365289 43.37071-55.974511 48.779875-5.969154 11.199772-8.010272 21.145656-8.010272 29.480559 0 6.752326 1.326929 12.453659 2.970375 16.917336 8.700113 23.629084 32.718753 33.668299 35.429422 34.739582a16.243727 16.243727 0 0 0 15.338818-1.874744c21.985639-15.598523 67.884414-38.245597 79.514322-22.602438 9.040975 12.137144 12.189896 22.066797 9.381837 29.517079-5.242792 13.914499-29.951274 22.050565-38.184729 23.791399a16.288364 16.288364 0 0 0-12.230475 11.276872 16.247785 16.247785 0 0 0 4.049773 16.093585l50.484188 50.480131a16.207206 16.207206 0 0 0 18.552665 3.128632c37.746477-18.288903 66.460095-71.682597 66.788784-124.199788 0.279994-46.089495-20.922472-82.172238-59.732116-101.564887-40.485552-20.277268-76.957852-24.968187-108.378081-13.963193z" fill="#CCCCE0" p-id="62862"></path><path d="M772.884642 269.74001c-31.152409 0.004058-59.261401 10.984704-81.332255 31.757034-14.490719 13.646678-21.896365 27.346109-24.148493 31.951812-13.273353 25.313107-10.39631 46.06109-5.628291 59.054449 4.877582 13.265237 14.214783 25.118329 26.993073 34.313504 8.367366 6.025964 15.67968 9.114017 17.724856 9.917479a32.357601 32.357601 0 0 0 11.853092 2.244012 32.617306 32.617306 0 0 0 18.857007-6.001617l-0.048695 0.032463c14.186378-10.039216 42.100591-24.862682 56.95652-24.862682 0.438252 0 0.823751 0.016232 1.119977 0.040579 5.157576 7.279852 6.228859 11.674545 6.192338 12.843217-0.507236 1.026646-3.465437 4.423098-11.321508 8.200992a77.801893 77.801893 0 0 1-15.115634 5.368586l0.178547-0.036521a32.62948 32.62948 0 0 0-24.432546 22.574033c-3.363989 11.410782-0.336805 23.754878 8.067082 32.174996l50.488247 50.480131a32.365717 32.365717 0 0 0 37.101272 6.261322c21.478403-10.39631 41.021193-30.706041 55.033082-57.18782 13.2977-25.122387 20.719578-54.083535 20.894067-81.518919 0.150142-24.006467-5.007434-45.931238-15.338818-65.16157-11.877439-22.09926-29.829537-39.284417-53.349058-51.036061-28.376813-14.202609-55.556549-21.409419-80.743862-21.409419z m-82.647011 100.128394c0.016232-6.346537 1.777355-13.610157 6.16799-21.81115 0 0 20.910298-45.846022 76.491195-45.854138 18.207745 0 40.148747 4.922219 66.27749 17.996735 36.650847 18.337597 50.816935 51.863871 50.760125 86.400558-0.085216 46.5805-26.051643 94.946471-57.634188 110.256883l-50.484188-50.492304s52.176328-10.822388 52.123575-45.395597c-0.020289-9.353433-3.854994-20.42741-13.589868-33.518157-6.354653-8.537797-15.704028-11.763818-26.189611-11.763818-32.39818-0.004058-75.740485 30.844009-75.744543 30.848067-0.024347-0.008116-28.226671-11.10644-28.177977-36.667079z m-23.300394-35.445654l0.068984-0.129853a0.673609 0.673609 0 0 0-0.068984 0.129853z m129.38171 73.910377c-0.004058 0-0.004058 0 0 0-0.004058 0 0 0 0 0z m5.165692 12.615975l0.004058-0.012174-0.004058 0.012174z" fill="#6E6E96" p-id="62863"></path><path d="M935.09467 455.088116l0.219126-0.21101c-34.654366 34.654366-117.881655 9.296622-147.017294-3.40051a16.231553 16.231553 0 0 0-22.728232 14.876218c0 46.458763 15.079113 59.297922 74.494713 89.951211 44.454166 22.931127 103.837304 21.843613 135.180434-2.47937 18.512086-14.37304 25.824401-34.922187 20.549146-57.902008-4.203972-18.361945-12.116855-43.415347-32.154707-48.974655-12.043813-3.3437-22.90678 2.300823-28.543186 8.140124z" fill="#CCCCE0" p-id="62864"></path><path d="M866.447373 395.668458a16.231553 16.231553 0 0 1-14.588108-9.08967c-10.948183-22.334617-30.036489-35.843327-56.733337-40.152805-21.518982-3.465437-40.083821 0.446368-40.266425 0.486947a16.247785 16.247785 0 0 1-19.307433-12.384675 16.211264 16.211264 0 0 1 12.307575-19.315549c32.799911-7.292025 102.847179-4.747729 133.147432 57.074199a16.231553 16.231553 0 0 1-14.559704 23.381553z" fill="#FFFFFF" opacity=".34" p-id="62865"></path><path d="M221.912683 60.494999c-3.729199 1.558229-14.466372 7.141883-19.912058 21.608255-1.968076 5.234676-2.958201 10.931951-2.9582 17.075594 0 13.955078 5.068303 30.206921 15.156212 48.568865 4.423098 8.030561 10.213705 16.466911 16.324885 25.38615 17.73703 25.80817 37.494888 54.582656 37.494888 89.208616 0 39.726727-25.986717 87.179673-110.82093 146.798168-82.391364 57.89795-130.623425 156.407247-130.623424 254.595971 0 29.139696 4.240493 58.234755 13.102921 86.226068 46.105727 145.83239 200.224325 229.485758 422.803557 229.485758 223.67892 0 377.825923-81.076608 422.933409-222.449379 36.6265-114.862587-9.414301-249.815778-109.485884-320.897808-31.915292-22.663306-68.773091-56.388416-63.128569-88.368634 7.377241-41.804365 83.198884-71.288982 111.786707-79.136938l0.848099-0.235357 0.844041-0.328689c4.435272-1.74895 43.253032-17.980503 42.185807-48.958423-0.96172-28.031892-33.518157-51.267361-102.417043-73.090684-35.18595-11.138903-70.591025-29.809248-108.069682-49.571164-112.951321-59.573858-240.969582-127.068715-436.064736-35.916369z" fill="#D6A97A" p-id="62866"></path><path d="M405.150688 0C375.410424 0 344.919452 3.599347 314.513694 10.700651c-32.248038 7.527383-65.595765 19.274969-99.130153 34.918129-10.132547 4.309477-22.415775 14.385214-28.583765 30.791257-4.098467 10.899488-5.048013 23.154311-2.820233 36.423605 2.211549 13.204369 7.450283 27.187852 16.000254 42.745796 4.816713 8.748807 10.81833 17.493557 17.168925 26.7496 16.978205 24.704424 36.20448 52.707911 34.30133 84.217414-2.361691 39.174854-37.206778 82.68759-103.569483 129.320842-27.333936 19.214101-51.571703 42.968979-72.035634 70.611315a334.938101 334.938101 0 0 0-46.892957 88.632396C17.683222 587.265712 11.450306 620.491702 10.431776 653.871891c-1.071283 34.747698 3.570942 68.732512 13.780589 100.996782 22.371138 70.761456 70.615372 129.978221 139.522373 171.29564 76.925389 46.126016 177.447398 69.527858 298.766085 69.527858 122.174901 0 223.058063-22.691711 299.817078-67.401525 35.279281-20.565378 65.177802-45.736459 88.855581-74.819344 22.38737-27.475962 39.097754-58.259103 49.709132-91.537845 9.771395-30.637057 14.222899-62.889153 13.224658-95.859496-0.94143-31.517619-6.849715-62.921616-17.497615-93.335489-21.332319-60.835862-60.852093-114.051009-111.271355-149.869989-39.146449-27.812766-59.768637-54.176867-56.546674-72.327801 2.532122-14.25942 20.005389-30.819662 47.923661-45.436176 25.678317-13.439726 50.99954-20.536973 52.087054-20.833198l1.724603-0.466657 1.732718-0.677668c1.980249-0.770999 12.429312-5.076418 23.19489-12.770174 7.527383-5.388876 13.731894-11.398608 18.394408-17.838477 7.523325-10.355731 11.264698-22.115491 10.858909-34.005104-0.36521-10.477468-3.826589-20.541031-10.331384-29.935042-5.494381-7.941287-12.952779-15.184618-22.854027-22.139839-18.122529-12.745827-44.470398-24.497472-80.565314-35.928543-33.798152-10.712825-68.574255-29.042307-105.407707-48.455244C592.617012 43.589836 509.953769 0 405.150688 0zM215.26992 99.219427c0.024347-19.084249 13.151616-23.872557 13.151616-23.872557C294.504247 44.425761 352.698423 32.463107 405.150688 32.463107c148.295528 0 250.745035 95.668775 355.994484 128.992153 71.260577 22.565917 91.136114 43.029848 91.115824 58.855612-0.036521 20.029737-31.931523 32.621364-31.931523 32.621364s-124.366161 33.538447-124.358046 101.621697c0.008116 26.38439 18.694691 57.946645 70.554504 94.767924 71.069856 50.472015 115.321128 137.607051 115.248086 225.955395-0.093331 142.415648-115.398228 287.939639-419.285367 287.939639C160.545238 963.216891 42.760972 812.437935 42.74474 663.554013c-0.008116-93.887362 46.807742-187.019957 123.802115-241.123782 90.214973-63.392331 117.451519-116.290963 117.50833-160.197315 0.0771-53.000079-39.45079-92.889121-55.629591-122.316927-9.885016-17.956156-13.167848-31.124003-13.155674-40.696562z m613.540539 185.047823h0.012174-0.012174z" fill="#6E6E96" p-id="62867"></path><path d="M956.333657 429.722257c-17.355588 0-28.948975 10.083852-32.60919 13.780588-8.509392 8.432292-22.643017 12.709306-42.019434 12.709306-41.232203 0-86.485774-19.421053-86.936199-19.615832l0.044637 0.02029a32.515859 32.515859 0 0 0-30.775025 2.601106 32.471222 32.471222 0 0 0-14.697672 27.139157c0 19.859305 1.416203 40.907572 18.309193 60.746588 12.891911 15.148097 32.787738 27.021478 65.003312 43.630415 23.044748 11.901786 50.467957 18.439044 77.209441 18.439045 38.306466 0 70.599141-12.936548 88.595876-35.534928 13.634505-17.116173 18.329482-38.902975 13.175963-61.33904l-0.004058-0.012173c-4.260783-18.532376-9.982405-32.410354-17.497614-42.421165-13.2206-17.52602-29.354764-20.143358-37.79923-20.143357z m-74.640797 58.953001c24.432546 0 48.349739-5.575539 65.088528-22.318386 0 0 3.988904-4.171509 9.552269-4.171509 7.05261 0 16.612995 6.74421 23.6372 37.365036 0.839983 3.668331 1.245772 7.18652 1.241714 10.50993-0.032463 30.178515-33.043385 46.649484-71.366082 46.649484-20.683057 0-42.895937-4.796424-62.33728-14.81535-59.452122-30.681694-65.705328-39.673974-65.705328-75.525417-0.012174-0.012174 51.003598 22.306212 99.888979 22.306212z" fill="#6E6E96" p-id="62868"></path><path d="M766.529989 449.334031c-185.64839-131.820502 53.795425-196.389621 53.795426-196.389621s6.330306-2.495601 13.346394-7.03232c-77.351467 33.323379-238.514559-22.014044-178.640417 172.188374 0 0 26.209901 85.840569 50.589694 141.774502 23.535752 54.911345 83.929304 170.208125 44.709813 221.19955-54.911345 62.763359-181.984117 33.745399-257.590692 48.09815-11.885555 1.266061-24.509645 2.045176-37.70184 2.572702-13.273353 0.486947-27.139157 0.738536-41.609587 0.738535-111.786707 1.95996-249.67781 93.712873-300.04432-139.234264-16.150395-61.78135-39.219491-117.66253-12.149317-177.439282a265.134307 265.134307 0 0 1 16.961973-33.189468c19.315548-32.037028 45.432118-60.231236 76.369458-81.096898l0.008116-0.004058a575.635805 575.635805 0 0 1-27.99943 20.938703c-199.088116 139.911931-196.405852 540.798833 295.953969 540.798834 492.351705-0.016232 489.63292-382.086706 304.00076-513.923439z" fill="#B08B64" p-id="62869"></path><path d="M638.941865 249.998383c83.531631-31.874713 178.129123-9.503574 213.294783-30.162284-0.369268-15.760838-20.549146-36.046222-91.095534-58.388955-142.464343-45.107486-279.803573-204.468876-532.71552-86.0881 0 0-5.194097 1.923439-9.057207 8.075198C201.81802 118.311792 274.044374 182.856563 399.68877 210.778893c176.497852 39.219491 123.672262 83.34091 239.253095 39.21949z" fill="#FFD2A8" opacity=".78" p-id="62870"></path><path d="M564.865114 608.719768c0 93.400415-111.559466 76.491195-237.013141 113.85623-130.899361 38.984133-190.152646-58.953001-190.152646-152.36559 0-93.3923 115.016786-112.176265 170.885793-239.423526 46.661658-106.263921 256.279994 184.544645 256.279994 277.932886z" fill="#FFD2A8" opacity=".56" p-id="62871"></path><path d="M374.347258 204.334966s46.913247 45.663417 56.717105 112.354812c0 0-100.854756-132.506285-123.505889-139.327596l66.788784 26.972784z" fill="#FFD2A8" opacity=".78" p-id="62872"></path><path d="M287.049906 366.857451s72.749822 97.129615 294.582402 118.770333c99.353337 9.694295 126.378874 67.206746 148.125097 124.727313l-56.144942-176.128584s-215.839079 46.511516-386.562557-67.369062z" fill="#B08B64" p-id="62873"></path><path d="M336.04485 78.045366s-102.23038 5.388876-21.527098 51.137508c80.72763 45.736459 120.470588 53.803541 215.238512 53.803542 43.748094 0 317.464834 45.736459 209.857752 8.075197-107.615198-37.677493-145.276459-137.229667-403.569166-113.016247z" fill="#735C42" p-id="62874"></path><path d="M282.281888 237.082125l-8.144182 0.665493a16.162569 16.162569 0 0 0-4.179625 0.908967c-2.950085 1.07534-28.888107 11.078035-34.406835 35.823038-3.907746 17.497614 3.648042 35.89608 22.460412 54.704393 47.956124 47.94395 256.515352 146.039342 464.384738 93.067668a16.150395 16.150395 0 0 0 5.356413-2.467196c2.682264-1.899092 25.617449-19.912058 5.307718-68.221218-9.552269-22.671422-38.756891-21.352608-87.143152-19.165407-82.273686 3.721084-220.010589 9.937768-352.423542-91.996386a16.186916 16.186916 0 0 0-11.211945-3.319352z" fill="#CCCCE0" p-id="62875"></path><path d="M283.604759 220.805935c-0.880562 0-1.769239 0.036521-2.637627 0.093331l-8.152298 0.665494a32.950053 32.950053 0 0 0-8.367366 1.817934c-2.158797 0.779115-9.885016 3.794126-18.366002 9.7998-13.946962 9.864726-23.069095 22.910837-26.372216 37.754593-2.666033 11.978886-1.46084 24.302693 3.595289 36.634616 4.597587 11.220061 12.20207 22.042449 23.243584 33.079905 24.042988 24.047046 74.06052 51.965318 130.534151 72.839095 49.721305 18.39035 128.200865 40.323236 219.718421 40.323236 44.770682 0 88.388923-5.328007 129.621126-15.841995a32.560496 32.560496 0 0 0 10.733115-4.946566c4.098467-2.90139 14.117393-11.495998 18.512086-28.673039 4.321651-16.913278 1.773297-36.784758-7.620714-59.09097-3.980788-9.471111-13.102921-21.847671-33.93612-27.139157-8.468813-2.138507-18.503971-3.108342-32.511801-3.1124-10.700651 0-22.602438 0.539699-36.391142 1.160556-1.943729 0.085216-3.915862 0.178547-5.924517 0.255647-14.819408 0.661436-32.211517 1.36345-50.999541 1.36345-49.737537 0-93.716931-5.230618-134.450013-15.984022a420.896349 420.896349 0 0 1-74.340514-27.30553c-26.46149-12.693075-52.054591-28.490434-76.048885-46.970057a32.702522 32.702522 0 0 0-19.839016-6.723921z m-32.808027 62.564522c0.016232-20.545089 24.663845-29.435922 24.663845-29.435922l8.144182-0.665494c108.889375 83.811625 221.317229 97.00382 304.650023 97.00382 19.149175 0 36.776642-0.697957 52.448207-1.395913 15.683738-0.697957 29.43998-1.395914 40.854819-1.395914 20.175821 0.004058 33.079906 2.179086 36.537226 10.371963 5.328007 12.656554 7.10942 22.298096 7.125652 29.529253 0.032463 14.287825-6.833484 19.137001-6.833484 19.137001-40.956267 10.440947-81.928765 14.83564-121.623028 14.83564-155.563206 0-291.222471-67.571956-327.284924-103.654699-13.882036-13.877978-18.690634-25.244123-18.682518-34.329735z" fill="#6E6E96" p-id="62876"></path><path d="M587.110458 389.776404c-191.211755 0-317.103682-102.526606-323.312252-107.68824a16.231553 16.231553 0 0 1 20.747983-24.968187c2.020828 1.667792 172.111275 139.339769 409.854836 88.782539a16.223437 16.223437 0 0 1 19.250622 12.502353 16.231553 16.231553 0 0 1-12.498296 19.254681c-40.067589 8.517508-78.207681 12.116855-114.042893 12.116854z" fill="#FFFFFF" opacity=".34" p-id="62877"></path><path d="M751.767392 222.165327h-0.142026c-25.272528 0-78.714917-6.683342-130.404299-13.147558-38.533707-4.820771-78.378113-9.803858-91.464803-9.803858-94.978934 0-138.158923-7.709988-223.240667-55.909585-12.149318-6.886236-44.413588-25.175139-38.578345-49.928258 2.491543-10.562683 14.502893-28.681155 66.914579-31.521676 26.920031-2.515891 52.630811-3.790068 76.42221-3.790068 134.896381 0 198.556533 40.327294 254.721765 75.906859 25.617449 16.231553 49.822753 31.562255 78.974623 41.767844 19.749742 6.914642 38.407913 13.439726 35.506523 30.503147-2.686322 15.829822-20.808851 15.923154-28.70956 15.923153zM302.226409 100.935914c2.913564 2.881101 8.765039 7.584193 20.297557 14.121451 79.26679 44.90865 117.366304 51.693439 207.232298 51.693439 15.111576 0 52.358933 4.658456 95.490228 10.05139 20.058142 2.507775 41.228145 5.157576 60.795283 7.39753-12.70119-7.145941-24.899203-14.876219-37.417788-22.805332-55.000618-34.841029-111.871923-70.866961-237.349946-70.866962-22.882432 0-47.684246 1.237656-73.719657 3.676447l-0.661436 0.048695c-12.904085 0.702015-27.496251 3.635868-34.666539 6.683342z" fill="#6E6E96" p-id="62878"></path><path d="M856.322942 497.797391s60.81963 90.787135 118.94888-14.458256c0 0 34.01322 87.83705-87.83705 87.83705l-31.11183-73.378794z" fill="#6E6E96" opacity=".15" p-id="62879"></path></svg>