<?xml version="1.0" standalone="no"?><!DOCTYPE svg PUBLIC "-//W3C//DTD SVG 1.1//EN" "http://www.w3.org/Graphics/SVG/1.1/DTD/svg11.dtd"><svg t="1721351464153" class="icon" viewBox="0 0 1024 1024" version="1.1" xmlns="http://www.w3.org/2000/svg" p-id="8854" xmlns:xlink="http://www.w3.org/1999/xlink" width="256" height="256"><path d="M969.84 875.14l-36.04-179.44a10 10 0 0 0-9.8-8.02h-105l-34.6-172.3a10 10 0 0 0-9.8-8.02h-105l-34.6-172.3a10 10 0 0 0-9.8-8.02H398.82a10 10 0 0 0-9.8 8.02l-34.62 172.3h-105a10 10 0 0 0-9.8 8.02l-34.6 172.3H100a10 10 0 0 0-9.8 8.02l-36.22 180.32a9.99 9.99 0 0 0 9.8 11.98H960.26a10.004 10.004 0 0 0 9.58-12.86zM766.4 527.36l32.2 160.32H524.2l32.22-160.32H766.4zM512 646.9l-24.02-119.54h48.04L512 646.9z m-105-299.86h210l32.2 160.32H374.8l32.2-160.32z m-149.4 180.32h210l32.2 160.32H225.4l32.2-160.32zM75.98 868l32.2-160.32h210l32.2 160.32H75.98z m286.62-40.78l-24.02-119.54h48.02l-24 119.54z m12.2 40.78l32.2-160.32h210L649.2 868H374.8z m286.6-40.78l-24-119.54h48.02l-24.02 119.54z m12.22 40.78l32.2-160.32h210l32.2 160.32h-274.4z" fill="#23130D" p-id="8855"></path><path d="M649.2 507.36H374.8l32.2-160.32h210z" fill="#F9C139" p-id="8856"></path><path d="M446.34 347.04l-32.2 160.32H374.8l32.2-160.32z" fill="#FFFFFF" opacity=".4" p-id="8857"></path><path d="M649.2 507.36h-39.34l-32.2-160.32h39.34z" opacity=".2" p-id="8858"></path><path d="M948.02 868h-274.4l32.2-160.32h210zM798.6 687.68H524.2l32.22-160.32H766.4zM649.2 868H374.8l32.2-160.32h210zM499.8 687.68H225.4l32.2-160.32h210zM350.38 868H75.98l32.2-160.32h210z" fill="#F9C139" p-id="8859"></path><path d="M608.808 357.04l28.182 140.32H387.008l28.182-140.32h193.618m8.192-10h-210l-32.2 160.32h274.4l-32.2-160.32zM907.628 717.68L935.812 858H685.828l28.182-140.32h193.618m8.192-10h-210L673.62 868h274.4l-32.2-160.32zM758.208 537.36l28.182 140.32h-249.98l28.2-140.32h193.598m8.192-10H556.42l-32.22 160.32h274.4l-32.2-160.32zM608.808 717.68L636.992 858H387.008l28.182-140.32h193.618m8.192-10h-210L374.8 868h274.4l-32.2-160.32zM459.408 537.36l28.184 140.32H237.608l28.182-140.32h193.618m8.192-10h-210l-32.2 160.32h274.4l-32.2-160.32zM309.988 717.68L338.172 858H88.188l28.184-140.32h193.616m8.192-10h-210L75.98 868h274.4l-32.2-160.32z" opacity=".2" p-id="8860"></path><path d="M512 211.738a10 10 0 0 0 10-10V146.006a10 10 0 1 0-20 0v55.732a10 10 0 0 0 10 10zM357.868 245.716a9.996 9.996 0 0 0 13.662 3.658 10.004 10.004 0 0 0 3.66-13.662l-27.866-48.258a10.004 10.004 0 0 0-13.662-3.66 10.004 10.004 0 0 0-3.66 13.662l27.866 48.26zM206.766 328.006l48.266 27.862a9.994 9.994 0 0 0 13.66-3.66 10 10 0 0 0-3.662-13.66l-48.266-27.862a10 10 0 0 0-9.998 17.32zM763.966 357.21c1.696 0 3.414-0.432 4.988-1.34l48.278-27.862c4.784-2.76 6.424-8.876 3.662-13.66s-8.876-6.424-13.658-3.662l-48.278 27.862a10 10 0 0 0 5.008 18.662zM652.466 249.376a9.998 9.998 0 0 0 13.662-3.658l27.876-48.262a10 10 0 0 0-17.32-10.004l-27.876 48.262a10.004 10.004 0 0 0 3.658 13.662z" fill="#23130D" p-id="8861"></path><path d="M458.36 347.04h15.8v160.32h-15.8zM480.3 347.04h12.14v160.32h-12.14zM505.08 347.04h20.2v160.32h-20.2z" fill="#FFFFFF" opacity=".2" p-id="8862"></path><path d="M296.94 527.36l-32.2 160.32H225.4l32.2-160.32z" fill="#FFFFFF" opacity=".4" p-id="8863"></path><path d="M499.8 687.68h-39.34l-32.2-160.32h39.34z" opacity=".2" p-id="8864"></path><path d="M308.96 527.36h15.8v160.32h-15.8zM330.9 527.36h12.14v160.32h-12.14zM355.68 527.36h20.2v160.32h-20.2z" fill="#FFFFFF" opacity=".2" p-id="8865"></path><path d="M147.54 707.68L115.34 868H76l32.2-160.32z" fill="#FFFFFF" opacity=".4" p-id="8866"></path><path d="M350.4 868h-39.34l-32.2-160.32h39.34z" opacity=".2" p-id="8867"></path><path d="M159.56 707.68h15.8V868h-15.8zM181.5 707.68h12.14V868h-12.14zM206.28 707.68h20.2V868h-20.2z" fill="#FFFFFF" opacity=".2" p-id="8868"></path><path d="M446.34 707.68L414.14 868H374.8l32.2-160.32z" fill="#FFFFFF" opacity=".4" p-id="8869"></path><path d="M649.2 868h-39.34l-32.2-160.32h39.34z" opacity=".2" p-id="8870"></path><path d="M458.36 707.68h15.8V868h-15.8zM480.3 707.68h12.14V868h-12.14zM505.08 707.68h20.2V868h-20.2z" fill="#FFFFFF" opacity=".2" p-id="8871"></path><path d="M745.14 707.68L712.94 868H673.6l32.2-160.32z" fill="#FFFFFF" opacity=".4" p-id="8872"></path><path d="M948 868h-39.34l-32.2-160.32h39.34z" opacity=".2" p-id="8873"></path><path d="M757.16 707.68h15.8V868h-15.8zM779.1 707.68h12.14V868h-12.14zM803.88 707.68h20.2V868h-20.2z" fill="#FFFFFF" opacity=".2" p-id="8874"></path><path d="M595.74 527.36l-32.2 160.32H524.2l32.2-160.32z" fill="#FFFFFF" opacity=".4" p-id="8875"></path><path d="M798.6 687.68h-39.34l-32.2-160.32h39.34z" opacity=".2" p-id="8876"></path><path d="M607.76 527.36h15.8v160.32h-15.8zM629.7 527.36h12.14v160.32h-12.14zM654.48 527.36h20.2v160.32h-20.2z" fill="#FFFFFF" opacity=".2" p-id="8877"></path></svg>