<svg height="1024" node-id="1" sillyvg="true" template-height="1024" template-width="1024" version="1.1" viewBox="0 0 1024 1024" width="1024" xmlns="http://www.w3.org/2000/svg" xmlns:xlink="http://www.w3.org/1999/xlink"><defs node-id="26"><radialGradient cx="0.50000006" cy="0.175" fx="0.50000006" fy="0.175" gradientUnits="objectBoundingBox" id="radialGradient-1" node-id="5" r="0.82500005" rev="1" spreadMethod="pad"><stop offset="0" stop-color="#ffdd70"/><stop offset="1" stop-color="#f1823a"/></radialGradient><filter height="330.17966" id="filter-3" node-id="9" width="362.8944" x="187.432" y="444.57303"><feGaussianBlur color-interpolation-filters="linearRGB" in="SourceGraphic" result="result1" stdDeviation="34.08 34.08"></feGaussianBlur></filter><filter height="330.17966" id="filter-4" node-id="11" width="362.89447" x="467.43195" y="444.57303"><feGaussianBlur color-interpolation-filters="linearRGB" in="SourceGraphic" result="result1" stdDeviation="34.08 34.08"></feGaussianBlur></filter></defs><path d="M 0.00 0.00 L 1024.00 0.00 L 1024.00 1024.00 L 0.00 1024.00 Z" fill="#ffffff" fill-opacity="0" fill-rule="nonzero" node-id="44" stroke="none" target-height="1024" target-width="1024" target-x="0" target-y="0"/><g node-id="56"><g node-id="59"><path d="M 512.00 168.00 L 497.10 168.30 L 482.60 169.00 L 468.40 170.10 L 454.60 171.70 L 441.10 173.80 L 428.00 176.20 L 414.70 179.20 L 401.70 182.60 L 389.20 186.40 L 377.00 190.60 L 365.10 195.10 L 353.50 200.10 L 342.10 205.60 L 330.90 211.40 L 320.20 217.60 L 309.80 224.20 L 299.70 231.10 L 290.00 238.40 L 280.50 246.10 L 271.40 254.20 L 262.60 262.60 L 254.20 271.40 L 246.10 280.50 L 238.40 290.00 L 231.10 299.70 L 224.20 309.80 L 217.60 320.20 L 211.40 330.90 L 205.60 342.10 L 200.10 353.50 L 195.10 365.10 L 190.60 377.00 L 186.40 389.20 L 182.60 401.70 L 179.20 414.70 L 176.20 428.00 L 173.80 441.10 L 171.70 454.60 L 170.10 468.40 L 169.00 482.60 L 168.30 497.10 L 168.00 512.00 L 168.30 529.50 L 169.20 546.40 L 170.60 562.80 L 172.50 578.70 L 175.00 594.10 L 178.00 609.20 L 181.00 622.20 L 184.50 634.90 L 188.40 647.20 L 192.60 659.20 L 197.20 670.80 L 202.20 682.00 L 207.50 692.90 L 213.30 703.80 L 219.50 714.30 L 226.10 724.40 L 233.10 734.10 L 240.40 743.60 L 248.10 752.60 L 256.20 761.40 L 264.60 769.80 L 273.40 777.80 L 282.60 785.50 L 292.20 792.80 L 302.20 799.80 L 312.60 806.40 L 323.40 812.70 L 334.30 818.40 L 345.60 823.70 L 357.30 828.70 L 369.50 833.30 L 382.10 837.60 L 395.30 841.40 L 408.90 844.90 L 422.10 847.70 L 435.90 850.20 L 450.00 852.20 L 464.70 853.80 L 479.90 855.00 L 495.70 855.70 L 512.00 856.00 L 526.90 855.70 L 541.40 855.00 L 555.60 853.90 L 569.40 852.30 L 582.90 850.20 L 596.10 847.80 L 609.40 844.80 L 622.30 841.40 L 634.80 837.60 L 647.00 833.40 L 658.90 828.90 L 670.50 823.90 L 682.00 818.40 L 693.10 812.60 L 703.80 806.40 L 714.20 799.80 L 724.30 792.90 L 734.00 785.60 L 743.50 777.90 L 752.60 769.80 L 761.40 761.40 L 769.80 752.60 L 777.90 743.50 L 785.60 734.00 L 792.90 724.30 L 799.80 714.20 L 806.40 703.80 L 812.60 693.10 L 818.40 682.00 L 823.90 670.50 L 828.90 658.90 L 833.40 647.00 L 837.60 634.80 L 841.40 622.30 L 844.80 609.40 L 847.80 596.10 L 850.20 582.90 L 852.30 569.40 L 853.90 555.60 L 855.00 541.40 L 855.70 526.90 L 856.00 512.00 L 855.70 497.10 L 855.00 482.60 L 853.90 468.40 L 852.30 454.60 L 850.20 441.10 L 847.80 428.00 L 844.80 414.70 L 841.40 401.70 L 837.60 389.20 L 833.40 377.00 L 828.90 365.10 L 823.90 353.50 L 818.40 342.10 L 812.60 330.90 L 806.40 320.20 L 799.80 309.80 L 792.90 299.70 L 785.60 290.00 L 777.90 280.50 L 769.80 271.40 L 761.40 262.60 L 752.60 254.20 L 743.50 246.10 L 734.00 238.40 L 724.30 231.10 L 714.20 224.20 L 703.80 217.60 L 693.10 211.40 L 682.00 205.60 L 670.50 200.10 L 658.90 195.10 L 647.00 190.60 L 634.80 186.40 L 622.30 182.60 L 609.40 179.20 L 596.10 176.20 L 582.90 173.80 L 569.40 171.70 L 555.60 170.10 L 541.40 169.00 L 526.90 168.30 L 512.00 168.00 Z" fill="#fecc4a" fill-rule="evenodd" group-id="1,4" node-id="49" stroke="none" target-height="688" target-width="688" target-x="168" target-y="168"/></g><path d="M 512.00 168.00 L 497.10 168.30 L 482.60 169.00 L 468.40 170.10 L 454.60 171.70 L 441.10 173.80 L 428.00 176.20 L 414.70 179.20 L 401.70 182.60 L 389.20 186.40 L 377.00 190.60 L 365.10 195.10 L 353.50 200.10 L 342.10 205.60 L 330.90 211.40 L 320.20 217.60 L 309.80 224.20 L 299.70 231.10 L 290.00 238.40 L 280.50 246.10 L 271.40 254.20 L 262.60 262.60 L 254.20 271.40 L 246.10 280.50 L 238.40 290.00 L 231.10 299.70 L 224.20 309.80 L 217.60 320.20 L 211.40 330.90 L 205.60 342.10 L 200.10 353.50 L 195.10 365.10 L 190.60 377.00 L 186.40 389.20 L 182.60 401.70 L 179.20 414.70 L 176.20 428.00 L 173.80 441.10 L 171.70 454.60 L 170.10 468.40 L 169.00 482.60 L 168.30 497.10 L 168.00 512.00 L 168.30 529.50 L 169.20 546.40 L 170.60 562.80 L 172.50 578.70 L 175.00 594.10 L 178.00 609.20 L 181.00 622.20 L 184.50 634.90 L 188.40 647.20 L 192.60 659.20 L 197.20 670.80 L 202.20 682.00 L 207.50 692.90 L 213.30 703.80 L 219.50 714.30 L 226.10 724.40 L 233.10 734.10 L 240.40 743.60 L 248.10 752.60 L 256.20 761.40 L 264.60 769.80 L 273.40 777.80 L 282.60 785.50 L 292.20 792.80 L 302.20 799.80 L 312.60 806.40 L 323.40 812.70 L 334.30 818.40 L 345.60 823.70 L 357.30 828.70 L 369.50 833.30 L 382.10 837.60 L 395.30 841.40 L 408.90 844.90 L 422.10 847.70 L 435.90 850.20 L 450.00 852.20 L 464.70 853.80 L 479.90 855.00 L 495.70 855.70 L 512.00 856.00 L 526.90 855.70 L 541.40 855.00 L 555.60 853.90 L 569.40 852.30 L 582.90 850.20 L 596.10 847.80 L 609.40 844.80 L 622.30 841.40 L 634.80 837.60 L 647.00 833.40 L 658.90 828.90 L 670.50 823.90 L 682.00 818.40 L 693.10 812.60 L 703.80 806.40 L 714.20 799.80 L 724.30 792.90 L 734.00 785.60 L 743.50 777.90 L 752.60 769.80 L 761.40 761.40 L 769.80 752.60 L 777.90 743.50 L 785.60 734.00 L 792.90 724.30 L 799.80 714.20 L 806.40 703.80 L 812.60 693.10 L 818.40 682.00 L 823.90 670.50 L 828.90 658.90 L 833.40 647.00 L 837.60 634.80 L 841.40 622.30 L 844.80 609.40 L 847.80 596.10 L 850.20 582.90 L 852.30 569.40 L 853.90 555.60 L 855.00 541.40 L 855.70 526.90 L 856.00 512.00 L 855.70 497.10 L 855.00 482.60 L 853.90 468.40 L 852.30 454.60 L 850.20 441.10 L 847.80 428.00 L 844.80 414.70 L 841.40 401.70 L 837.60 389.20 L 833.40 377.00 L 828.90 365.10 L 823.90 353.50 L 818.40 342.10 L 812.60 330.90 L 806.40 320.20 L 799.80 309.80 L 792.90 299.70 L 785.60 290.00 L 777.90 280.50 L 769.80 271.40 L 761.40 262.60 L 752.60 254.20 L 743.50 246.10 L 734.00 238.40 L 724.30 231.10 L 714.20 224.20 L 703.80 217.60 L 693.10 211.40 L 682.00 205.60 L 670.50 200.10 L 658.90 195.10 L 647.00 190.60 L 634.80 186.40 L 622.30 182.60 L 609.40 179.20 L 596.10 176.20 L 582.90 173.80 L 569.40 171.70 L 555.60 170.10 L 541.40 169.00 L 526.90 168.30 L 512.00 168.00 Z" fill="url(#radialGradient-1)" fill-rule="evenodd" group-id="1,5" node-id="54" stroke="none" target-height="688" target-width="688" target-x="168" target-y="168"/></g><path d="M 428.10 410.10 L 456.10 442.30" fill="none" id="路径-5" node-id="18" stroke="#000000" stroke-linecap="round" stroke-width="32" target-height="32.19998" target-width="28" target-x="428.1" target-y="410.1"/><path d="M 558.30 442.30 L 589.40 417.30" fill="none" id="路径-6" node-id="19" stroke="#000000" stroke-linecap="round" stroke-width="32" target-height="25" target-width="31.100037" target-x="558.3" target-y="417.3"/><path d="M 328.20 508.20 L 334.80 510.00 L 341.80 511.50 L 349.20 512.50 L 357.10 513.10 L 365.50 513.20 L 374.40 512.90 L 383.90 512.00 L 394.10 510.60 L 402.70 509.00 L 409.90 507.20 L 416.00 505.30 L 420.90 503.30 L 424.90 501.30 L 428.10 499.10" fill="none" id="路径-7" node-id="20" stroke="#000000" stroke-linecap="round" stroke-width="32" target-height="14.100006" target-width="99.899994" target-x="328.2" target-y="499.1"/><path d="M 570.00 502.10 L 576.40 504.60 L 583.50 506.70 L 591.10 508.50 L 599.50 510.00 L 608.50 511.10 L 618.30 511.80 L 629.00 512.00 L 640.00 511.70 L 649.70 511.00 L 658.10 509.80 L 665.40 508.30 L 671.60 506.50 L 677.00 504.40 L 681.60 502.10" fill="none" id="路径-8" node-id="21" stroke="#000000" stroke-linecap="round" stroke-width="32" target-height="9.899994" target-width="111.599976" target-x="570" target-y="502.1"/><path d="M 480.00 646.90 L 489.90 648.30 L 498.90 649.10 L 507.10 649.30 L 514.50 649.10 L 521.30 648.40 L 527.40 647.20 L 533.00 645.70 L 538.10 643.80 L 542.60 641.60" fill="none" id="路径-9" node-id="22" stroke="#000000" stroke-linecap="round" stroke-width="32" target-height="7.700012" target-width="62.599976" target-x="480" target-y="641.6"/><g node-id="57"><path d="M 368.80 546.80 L 362.20 547.00 L 355.80 547.60 L 349.70 548.60 L 337.90 551.70 L 327.00 556.20 L 317.20 561.90 L 312.70 565.20 L 308.60 568.70 L 304.90 572.50 L 301.40 576.50 L 298.40 580.80 L 295.80 585.20 L 293.60 589.70 L 291.90 594.50 L 290.60 599.40 L 289.90 604.40 L 289.60 609.60 L 289.90 614.80 L 290.60 619.80 L 291.90 624.70 L 293.60 629.50 L 295.80 634.00 L 298.40 638.40 L 301.40 642.70 L 304.90 646.70 L 308.60 650.50 L 312.70 654.00 L 317.20 657.30 L 327.00 663.00 L 337.90 667.50 L 349.70 670.60 L 355.80 671.60 L 362.20 672.20 L 368.80 672.40 L 375.40 672.20 L 381.80 671.60 L 387.90 670.60 L 399.70 667.50 L 410.60 663.00 L 420.40 657.30 L 424.90 654.00 L 429.00 650.50 L 432.70 646.70 L 436.20 642.70 L 439.20 638.40 L 441.80 634.00 L 444.00 629.50 L 445.70 624.70 L 447.00 619.80 L 447.70 614.80 L 448.00 609.60 L 447.70 604.40 L 447.00 599.40 L 445.70 594.50 L 444.00 589.70 L 441.80 585.20 L 439.20 580.80 L 436.20 576.50 L 432.70 572.50 L 429.00 568.70 L 424.90 565.20 L 420.40 561.90 L 410.60 556.20 L 399.70 551.70 L 387.90 548.60 L 381.80 547.60 L 375.40 547.00 L 368.80 546.80 Z" fill="#f68240" fill-rule="evenodd" filter="url(#filter-3)" group-id="2" id="路径" node-id="23" stroke="none" target-height="125.60004" target-width="158.4" target-x="289.6" target-y="546.8"/></g><path d="M 648.80 546.80 L 642.20 547.00 L 635.80 547.60 L 629.70 548.60 L 617.90 551.70 L 607.00 556.20 L 597.20 561.90 L 592.70 565.20 L 588.60 568.70 L 584.90 572.50 L 581.40 576.50 L 578.40 580.80 L 575.80 585.20 L 573.60 589.70 L 571.90 594.50 L 570.60 599.40 L 569.90 604.40 L 569.60 609.60 L 569.90 614.80 L 570.60 619.80 L 571.90 624.70 L 573.60 629.50 L 575.80 634.00 L 578.40 638.40 L 581.40 642.70 L 584.90 646.70 L 588.60 650.50 L 592.70 654.00 L 597.20 657.30 L 607.00 663.00 L 617.90 667.50 L 629.70 670.60 L 635.80 671.60 L 642.20 672.20 L 648.80 672.40 L 655.40 672.20 L 661.80 671.60 L 667.90 670.60 L 673.80 669.20 L 679.70 667.50 L 690.60 663.00 L 700.40 657.30 L 704.90 654.00 L 709.00 650.50 L 712.70 646.70 L 716.20 642.70 L 719.20 638.40 L 721.80 634.00 L 724.00 629.50 L 725.70 624.70 L 727.00 619.80 L 727.70 614.80 L 728.00 609.60 L 727.70 604.40 L 727.00 599.40 L 725.70 594.50 L 724.00 589.70 L 721.80 585.20 L 719.20 580.80 L 716.20 576.50 L 712.70 572.50 L 709.00 568.70 L 704.90 565.20 L 700.40 561.90 L 690.60 556.20 L 679.70 551.70 L 667.90 548.60 L 661.80 547.60 L 655.40 547.00 L 648.80 546.80 Z" fill="#f68240" fill-rule="evenodd" filter="url(#filter-4)" group-id="3" id="路径备份" node-id="24" stroke="none" target-height="125.60004" target-width="158.40002" target-x="569.6" target-y="546.8"/></svg>