<?xml version="1.0" standalone="no"?><!DOCTYPE svg PUBLIC "-//W3C//DTD SVG 1.1//EN" "http://www.w3.org/Graphics/SVG/1.1/DTD/svg11.dtd"><svg t="1727335697031" class="icon" viewBox="0 0 1070 1024" version="1.1" xmlns="http://www.w3.org/2000/svg" p-id="28605" xmlns:xlink="http://www.w3.org/1999/xlink" width="208.984375" height="200"><path d="M95.674961 618.520402l-77.451159 387.255796h1034.200773l-68.339258-387.255796z" fill="#ACDFF5" p-id="28606"></path><path d="M517.191506 1005.776198s40.402169-122.937769 152.624343-122.93777c112.217618 0 291.785853-51.227108 322.429176-218.102464L984.085317 618.520402h-111.529669s12.565312 101.465575-77.451159 134.473436c-90.021027 32.99875-334.589008 100.089677-334.589008 252.78236h56.676025z" fill="#FFF2B5" opacity=".31" p-id="28607"></path><path d="M481.495633 1005.776198s18.223802-145.712966 218.690182-166.975588c200.461824-21.262621 236.909428-121.493533 236.909428-121.493533s19.645259-71.450972 46.990074-98.786675H95.674961l-77.451159 387.255796h463.271831z" fill="#FFF2B5" p-id="28608"></path><path d="M700.185815 838.80061c200.461824-21.262621 236.909428-121.493533 236.909428-121.493533s19.645259-71.450972 46.990074-98.786675h-24.971165s-43.28153 36.5205-63.783307 98.786675-181.099034 102.887031-293.85881 124.527796-140.96111 163.941324-140.96111 163.941325h20.980152c0.004556 0 18.228358-145.712966 218.694738-166.975588z" fill="#FFE6B5" p-id="28609"></path><path d="M153.467194 1005.776198s48.261184-86.22592 136.678516-115.343c88.421888-29.121636 338.05153-88.950378 392.021321-65.983832l75.077509-20.875365s-55.537037-25.522435-75.277971-25.522435c0 0 147.307549-66.958805 174.643252-159.531164l-28.770828 6.993384s-111.557005 172.670526-410.418248 199.044923c0 0-86.877421 17.47207-158.697426 48.50265 0 0-11.731573-45.559505 42.069648-70.717465 53.810332-25.157959 108.581969-50.038005 112.386188-116.933026 0 0 56.183982-27.472382 72.895208-66.895022h-25.823127s-84.462767 76.006923-191.062898 86.635955c0 0-40.652747 3.430631-74.385005 89.797785 0 0-42.844159 60.730821-153.704103 91.775068l-4.701741 28.278785s155.758837-46.648378 199.090483-144.551199c0 0 19.062097-57.127064 150.009227-75.642446 0 0-12.200836 55.641824-91.734064 82.959303s-68.530608 96.326462-62.831114 102.025956-85.050485 69.719711-98.718336 125.981145h21.253509z" fill="#FFE6B5" p-id="28610"></path><path d="M41.755287 888.132443s87.419579-28.069211 126.901446-67.555635 46.028768-108.6822 94.15783-115.420451c151.863499-21.258065 197.423005-86.635956 197.423005-86.635955H95.674961L41.755287 888.132443z" fill="#BDE39F" p-id="28611"></path><path d="M322.333501 671.747572c-73.410031 2.113961-132.122566 71.373521-159.458269 119.971846s-98.718336 57.710226-98.718336 57.710225l-11.845472 37.299567c17.827434-6.123198 88.367217-31.805091 122.709972-66.152402 39.486423-39.486423 46.033324-108.6822 94.153274-115.420451 68.817633-9.626723 115.748479-28.324345 146.560373-45.878422l35.18105-24.524682c11.09374-9.644947 15.690694-16.228296 15.690694-16.228295H413.452512c0-0.004556-17.70898 51.108653-91.119011 53.222614z" fill="#B2D696" p-id="28612"></path><path d="M149.936332 1010.0269l-35.440739-8.496848c1.544467-6.442114 40.875988-158.205383 306.738482-195.960545 49.081255-6.970604 144.683321-24.315108 233.510689-62.102162 85.701986-36.456716 139.220737-80.726888 159.07557-131.575851l33.946387 13.257816c-23.554264 60.320785-83.692811 111.415771-178.752719 151.854387-92.658922 39.418084-191.800962 57.423201-242.654482 64.644383-241.588389 34.310864-276.104271 167.039371-276.423188 168.37882z" fill="#DEC99E" p-id="28613"></path><path d="M752.720481 849.024163a18.114459 18.114459 0 0 1-11.184859-3.849778c-81.483175-63.468947-221.041052-21.258065-222.439729-20.829806a18.210134 18.210134 0 0 1-22.802532-11.995817 18.219246 18.219246 0 0 1 11.968482-22.802533c6.44667-2.01373 159.057345-48.384195 255.670832 26.875552a18.21469 18.21469 0 0 1 3.175498 25.572551 18.160019 18.160019 0 0 1-14.387692 7.029831zM231.141595 907.17176a18.232914 18.232914 0 0 1-16.952692-11.526555c-9.613056-24.315108-8.305498-49.837543 3.781439-73.820066 16.574548-32.893963 51.687259-58.584968 96.335574-70.494223 54.530172-14.538038 56.835483-81.47862 56.853707-82.1529a18.132683 18.132683 0 0 1 18.674841-17.759095 18.223802 18.223802 0 0 1 17.759095 18.679397c-0.02278 0.961306-0.706172 23.841289-10.865942 49.149594-14.064219 35.039816-39.322409 58.316167-73.031887 67.305058-34.096734 9.089121-61.455217 28.406352-73.177677 51.678147-7.271297 14.428695-8.114148 29.650126-2.432878 44.015038a18.219246 18.219246 0 0 1-16.94358 24.925605z" fill="#DEC99E" p-id="28614"></path><path d="M1052.424575 1024H18.223802a18.223802 18.223802 0 0 1-17.868438-21.795667l77.451159-387.255797A18.223802 18.223802 0 0 1 95.674961 600.296599h888.410356a18.223802 18.223802 0 0 1 17.945889 15.057417l68.339259 387.255796a18.219246 18.219246 0 0 1-17.94589 21.390188z m-1011.97229-36.447604h990.254074l-61.906256-350.808192H110.613923l-70.161638 350.808192z" fill="#6E6E96" p-id="28615"></path><path d="M533.829837 428.865292m-103.160388 0a103.160388 103.160388 0 1 0 206.320776 0 103.160388 103.160388 0 1 0-206.320776 0Z" fill="#FFFFFF" p-id="28616"></path><path d="M533.829837 550.249483c-66.931469 0-121.38419-54.452721-121.38419-121.384191s54.452721-121.38419 121.38419-121.38419 121.38419 54.452721 121.38419 121.38419-54.452721 121.38419-121.38419 121.384191z m0-206.320777c-46.835172 0-84.936586 38.101414-84.936586 84.936586s38.101414 84.936586 84.936586 84.936586 84.936586-38.101414 84.936586-84.936586-38.101414-84.936586-84.936586-84.936586z" fill="#6E6E96" p-id="28617"></path><path d="M529.12354 236.449277c-118.964981 0-215.409898 96.444917-215.409898 215.41901s189.481983 378.626826 215.409898 378.626826c50.880856 0 215.41901-259.661845 215.41901-378.626826 0-118.974092-96.449473-215.41901-215.41901-215.41901z m4.706297 267.484413c-45.609621 0-82.58116-36.971539-82.58116-82.58116 0-45.609621 36.971539-82.58116 82.58116-82.58116 45.614177 0 82.585715 36.976095 82.585716 82.58116 0 45.605065-36.962427 82.58116-82.585716 82.58116z" fill="#FF9C9C" p-id="28618"></path><path d="M695.866774 365.259667c0.041004 1.576359-0.993197-1.225551 0 0 51.564248 63.309489-1.043313 237.32402-172.629522 389.989366-15.09842 13.440054-155.152896-175.372204-201.855945-298.79746 0 0.410036-0.031892 0.815515-0.031891 1.230107 0 114.887405 182.976086 365.624143 208.015589 365.624143 49.131371 0 208.011034-250.74585 208.011034-365.624143 0.018224-30.183172-29.950819-66.535102-41.509265-92.422013z" fill="#E08080" opacity=".45" p-id="28619"></path><path d="M548.559225 261.935265c45.541282 0 94.280841 23.116893 126.883223 50.001557-34.588777-41.928413-86.936648-68.649063-145.517061-68.649063-104.135362 0-207.200075 92.927723-207.200074 197.063085 0 97.447226 163.886653 294.223286 201.136104 320.169424-54.994879-64.193343-163.05747-198.912801-163.05747-312.342301-0.009112-115.898826 83.624472-186.242702 187.755278-186.242702z" fill="#FFADAD" p-id="28620"></path><path d="M24.602133 955.733637l-6.378331 31.891654h1034.200773l-5.622043-31.891654z" fill="#6E6E96" opacity=".15" p-id="28621"></path><path d="M865.721722 973.957439s183.085429 11.230418 159.362594-123.202014l21.731884 123.202014H865.721722z" fill="#6E6E96" opacity=".1" p-id="28622"></path><path d="M724.487255 973.957439s31.891654-54.671407 120.73269-54.671406 167.854886-45.308928 167.854886-136.555506l33.727701 191.226912H724.487255z" fill="#6E6E96" opacity=".05" p-id="28623"></path><path d="M529.12354 848.723471c-9.39437 0-21.668101-3.795107-58.707979-49.122259-23.39025-28.620481-49.709976-65.56924-74.111647-104.039687-37.654931-59.350368-100.81863-169.941511-100.81863-243.688682 0-128.833169 104.809642-233.642812 233.6337-233.642812 128.828614 0 233.642812 104.809642 233.642812 233.642812 0 83.560689-69.801718 207.309418-91.196462 243.251311-21.440303 36.028457-95.105468 153.599317-142.441794 153.599317z m0-594.050392c-108.72776 0-197.186095 88.462892-197.186095 197.195208 0 105.638825 163.244264 334.40677 199.331948 359.76519 14.574486-5.772389 57.710226-48.329523 110.700486-138.058969 52.028955-88.089304 84.348868-173.044114 84.348868-221.706221 0-108.732316-88.462892-197.195207-197.195207-197.195208z m4.706297 267.484413c-55.582597 0-100.804962-45.222365-100.804962-100.804962s45.222365-100.804962 100.804962-100.804962c55.587153 0 100.809518 45.222365 100.809518 100.804962s-45.222365 100.804962-100.809518 100.804962z m0-165.162319c-35.486299 0-64.357357 28.871059-64.357357 64.357357s28.871059 64.357357 64.357357 64.357357c35.490855 0 64.361913-28.871059 64.361913-64.357357s-28.875615-64.357357-64.361913-64.357357z" fill="#6E6E96" p-id="28624"></path><path d="M955.136808 36.447604h-145.790418a18.223802 18.223802 0 0 1 0-36.447604h145.790418a18.223802 18.223802 0 0 1 0 36.447604z" fill="#6E6E96" opacity=".29" p-id="28625"></path><path d="M839.716356 167.053039h-100.230911a18.223802 18.223802 0 0 1 0-36.447605h100.230911a18.223802 18.223802 0 0 1 0 36.447605zM189.73256 167.053039H56.092863a18.223802 18.223802 0 0 1 0-36.447605h133.639697a18.223802 18.223802 0 0 1 0 36.447605z" fill="#6E6E96" p-id="28626"></path><path d="M201.126993 277.152139H79.63346a18.223802 18.223802 0 0 1 0-36.447604h121.493533a18.223802 18.223802 0 0 1 0 36.447604z" fill="#6E6E96" opacity=".35" p-id="28627"></path><path d="M1009.808214 343.213422h-100.230912a18.223802 18.223802 0 0 1 0-36.447604h100.230912a18.223802 18.223802 0 0 1 0 36.447604z" fill="#6E6E96" opacity=".35" p-id="28628"></path></svg>