<?xml version="1.0" standalone="no"?><!DOCTYPE svg PUBLIC "-//W3C//DTD SVG 1.1//EN" "http://www.w3.org/Graphics/SVG/1.1/DTD/svg11.dtd"><svg t="1721354710038" class="icon" viewBox="0 0 1024 1024" version="1.1" xmlns="http://www.w3.org/2000/svg" p-id="33967" xmlns:xlink="http://www.w3.org/1999/xlink" width="256" height="256"><path d="M208 160v64H144v64H80v64H16v512h800v-64h64v-64h64v-64h64V160z" fill="#9EBF88" p-id="33968"></path><path d="M689.616 416H142.384A80.08 80.08 0 0 1 80 478.384V737.6a80.048 80.048 0 0 1 62.384 62.384H689.6a80.032 80.032 0 0 1 62.384-62.384V478.384A80.064 80.064 0 0 1 689.616 416z" fill="#D6E9C4" p-id="33969"></path><path d="M624 576a32 32 0 1 0 0.016 64.016A32 32 0 0 0 624 576z m-416 0a32 32 0 1 0 0.016 64.016A32 32 0 0 0 208 576z" fill="#AECC99" p-id="33970"></path><path d="M128 816h576a64 64 0 0 1 64-64V464a64 64 0 0 1-64-64H128a64 64 0 0 1-64 64v288a64 64 0 0 1 64 64zM96 490.128A95.792 95.792 0 0 0 154.128 432h523.744A95.792 95.792 0 0 0 736 490.128v235.744c-33.12 11.776-51.152 38.512-58.128 58.128H154.128C147.152 764.384 129.12 737.664 96 725.872V490.128z m248.848 194.24A132.064 132.064 0 0 0 400 705.696V720a16 16 0 1 0 32 0v-13.072c37.76-4.192 64-26.176 64-56.496 0-30.976-19.488-48.864-65.104-59.76l-22.96-5.856c-22.288-6.928-26.512-13.76-26.512-23.984 0-12.096 9.504-19.872 26.048-21.36 0.064-0.016 2.464-0.256 6.112-0.256 4.128 0 10.272 0.32 16.16 1.856a130.56 130.56 0 0 1 29.536 12.096c3.28 1.872 6.624 2.832 9.936 2.832 10.432 0 18.624-7.712 18.624-17.568 0-6.528-3.424-11.808-9.808-15.264-13.456-8.128-30.4-13.568-46.016-15.744V496a16 16 0 1 0-32 0v11.936c-35.104 4.672-57.568 25.648-57.568 54.848 0 31.072 18.592 48.384 64.272 59.776l22.96 5.28c22.896 6.832 27.36 14.16 27.36 24.528 0 12.496-9.568 20.4-26.864 22.208-0.048 0-2.352 0.176-5.952 0.176-4.288 0-10.32-0.24-16.592-1.264-12.192-2.016-29.616-9.568-42.256-18.336a18.688 18.688 0 0 0-11.008-3.552c-10.304 0-18.336 7.712-18.336 17.568-0.032 6.368 3.04 11.632 8.816 15.2zM624 656a48 48 0 1 0 0-96 48 48 0 0 0 0 96z m0-64a16 16 0 1 1 0 32 16 16 0 1 1 0-32zM992 144H224a32 32 0 0 0-32 32v32h-32a32 32 0 0 0-32 32v32H96a32 32 0 0 0-32 32v32H32a32 32 0 0 0-32 32v480a32 32 0 0 0 32 32h768a32 32 0 0 0 32-32v-32h32a32 32 0 0 0 32-32v-32h32a32 32 0 0 0 32-32v-32h32a32 32 0 0 0 32-32V176a32 32 0 0 0-32-32zM800 848H32V368h768v480z m64-64h-32V368a32 32 0 0 0-32-32H96v-32h768v480z m64-64h-32V304a32 32 0 0 0-32-32H160v-32h768v480z m64-64h-32V240a32 32 0 0 0-32-32H224v-32h768v480z m-784 0a48 48 0 1 0 0-96 48 48 0 0 0 0 96z m0-64a16 16 0 1 1 0 32 16 16 0 1 1 0-32z" fill="#2B3139" p-id="33971"></path></svg>