<?xml version="1.0" standalone="no"?><!DOCTYPE svg PUBLIC "-//W3C//DTD SVG 1.1//EN" "http://www.w3.org/Graphics/SVG/1.1/DTD/svg11.dtd"><svg t="1721351529716" class="icon" viewBox="0 0 1024 1024" version="1.1" xmlns="http://www.w3.org/2000/svg" p-id="9038" xmlns:xlink="http://www.w3.org/1999/xlink" width="256" height="256"><path d="M577.718 382.46c0 29.36-23.9 53.24-53.26 53.24H522v38.6c0 5.52-4.48 10-10 10-5.54 0-10-4.48-10-10v-38.6h-45.74c-5.52 0-10-4.48-10-10s4.48-10 10-10h68.2c18.34 0 33.26-14.92 33.26-33.24 0-18.34-14.92-33.26-33.26-33.26h-24.94c-29.36 0-53.26-23.88-53.26-53.24s23.9-53.26 53.26-53.26H502v-38.58c0-5.54 4.46-10 10-10 5.52 0 10 4.46 10 10v38.58h45.72c5.52 0 10 4.48 10 10s-4.48 10-10 10h-68.2c-18.34 0-33.26 14.92-33.26 33.26 0 18.32 14.92 33.24 33.26 33.24h24.94c29.358 0 53.258 23.9 53.258 53.26zM211.88 277.42c-34.08 0-61.8 27.72-61.8 61.8 0 34.06 27.72 61.78 61.8 61.78 34.06 0 61.78-27.72 61.78-61.78 0-34.08-27.722-61.8-61.78-61.8z m0 103.58c-23.06 0-41.8-18.74-41.8-41.78 0-23.06 18.74-41.8 41.8-41.8 23.04 0 41.78 18.74 41.78 41.8 0 23.04-18.74 41.78-41.78 41.78z" fill="#23130D" p-id="9039"></path><path d="M512 145.5h-0.04c-106.78 0.02-193.66 86.9-193.66 193.72 0 106.8 86.9 193.68 193.7 193.68h0.02c106.8 0 193.68-86.9 193.68-193.68-0.002-106.82-86.9-193.72-193.7-193.72z m0 367.4h-0.02c-95.76 0-173.68-77.92-173.68-173.68 0-95.8 77.92-173.72 173.7-173.72h0.02c95.76 0 173.68 77.94 173.68 173.72-0.002 95.76-77.92 173.68-173.7 173.68z" fill="#23130D" p-id="9040"></path><path d="M955.938 223.3V99c0-5.52-4.48-10-10-10H78.06c-5.52 0-10 4.48-10 10v124.3c0 0.04 0.02 0.1 0.02 0.14v231.58c0 0.04-0.02 0.08-0.02 0.12v124.28c0 5.52 4.48 10 10 10h124.34c0.08 0 0.16-0.02 0.24-0.02h618.74c0.08 0 0.16 0.02 0.26 0.02h124.3c5.52 0 10-4.46 10-10v-124.28c0-0.04-0.02-0.06-0.02-0.1v-231.6c0-0.04 0.018-0.1 0.018-0.14zM88.078 109h103.84c-2.3 26.74-13.84 51.58-33.04 70.8-19.22 19.22-44.06 30.76-70.8 33.06V109z m0 460.4v-103.84c26.74 2.32 51.58 13.84 70.8 33.06 19.2 19.2 30.74 44.04 33.04 70.78h-103.84z m847.842 0h-103.84c4.8-55.04 48.8-99.02 103.84-103.82v103.82z m0-123.86c-66.06 4.9-118.96 57.78-123.86 123.86H211.96c-2.36-32.08-15.96-61.94-38.94-84.92-23-23-52.86-36.58-84.94-38.94V232.88c32.08-2.34 61.94-15.94 84.94-38.94C196 170.94 209.6 141.08 211.94 109h600.12c2.34 32.08 15.94 61.96 38.94 84.96 22.98 22.98 52.84 36.58 84.92 38.92v212.66z m0-232.68c-26.74-2.3-51.58-13.84-70.78-33.06-19.22-19.22-30.76-44.06-33.06-70.8h103.84v103.86z" fill="#23130D" p-id="9041"></path><path d="M935.92 109v103.86c-26.74-2.3-51.58-13.84-70.78-33.06-19.22-19.22-30.76-44.06-33.06-70.8h103.84zM935.92 465.58v103.82h-103.84c4.8-55.04 48.8-99.02 103.84-103.82zM191.92 569.4H88.08v-103.84c26.74 2.32 51.58 13.84 70.8 33.06 19.198 19.2 30.74 44.04 33.04 70.78zM191.92 109c-2.3 26.74-13.84 51.58-33.04 70.8-19.22 19.22-44.06 30.76-70.8 33.06V109h103.84z" fill="#E1E1E5" p-id="9042"></path><path d="M851 193.96c-23-23-36.6-52.88-38.94-84.96H211.94C209.6 141.08 196 170.94 173.02 193.94c-23 23-52.86 36.6-84.94 38.94v212.66c32.08 2.36 61.94 15.94 84.94 38.94 22.98 22.98 36.58 52.84 38.94 84.92h600.1c4.9-66.08 57.8-118.96 123.86-123.86V232.88c-32.082-2.34-61.94-15.94-84.92-38.92zM211.88 401c-34.08 0-61.8-27.72-61.8-61.78 0-34.08 27.72-61.8 61.8-61.8 34.06 0 61.78 27.72 61.78 61.8 0 34.06-27.722 61.78-61.78 61.78z m300.14 131.9H512c-106.8 0-193.7-86.88-193.7-193.68 0-106.82 86.88-193.7 193.66-193.72h0.04c106.8 0 193.7 86.9 193.7 193.72-0.002 106.78-86.882 193.68-193.68 193.68z m300.1-131.9c-34.06 0-61.78-27.72-61.78-61.8 0-34.06 27.72-61.78 61.78-61.78 34.08 0 61.8 27.72 61.8 61.78 0 34.08-27.722 61.8-61.8 61.8z" fill="#72AF5F" p-id="9043"></path><path d="M803.066 119a144.088 144.088 0 0 0 40.862 82.032 144.024 144.024 0 0 0 81.992 40.842v194.688c-63.266 8.886-113.954 59.576-122.84 122.84H220.946a144.16 144.16 0 0 0-40.856-81.992 144.14 144.14 0 0 0-82.012-40.856v-194.68c30.914-4.292 59.75-18.6 82.014-40.864 22.25-22.27 36.548-51.104 40.84-82.01h582.134M512 542.9h0.02c112.31 0 203.68-91.37 203.68-203.68 0-112.332-91.38-203.72-203.742-203.72-112.298 0.022-203.658 91.41-203.658 203.72S399.678 542.9 512 542.9m300.12-131.9c39.59 0 71.8-32.21 71.8-71.8 0-39.58-32.21-71.78-71.8-71.78-39.58 0-71.78 32.2-71.78 71.78 0 39.59 32.2 71.8 71.78 71.8m-600.24 0c39.58 0 71.78-32.2 71.78-71.78 0-39.59-32.2-71.8-71.78-71.8-39.59 0-71.8 32.21-71.8 71.8 0 39.58 32.208 71.78 71.8 71.78m600.18-302H211.94C209.6 141.08 196 170.94 173.02 193.94c-23 23-52.86 36.6-84.94 38.94v212.66c32.08 2.36 61.94 15.94 84.94 38.94 22.98 22.98 36.58 52.84 38.94 84.92h600.1c4.9-66.08 57.8-118.96 123.86-123.86V232.88c-32.08-2.34-61.94-15.94-84.92-38.92-23-23-36.6-52.88-38.94-84.96zM512 532.9c-106.8 0-193.7-86.88-193.7-193.68 0-106.82 86.88-193.7 193.66-193.72h0.04c106.8 0 193.7 86.9 193.7 193.72 0 106.78-86.88 193.68-193.68 193.68H512z m300.12-131.9c-34.06 0-61.78-27.72-61.78-61.8 0-34.06 27.72-61.78 61.78-61.78 34.08 0 61.8 27.72 61.8 61.78 0 34.08-27.72 61.8-61.8 61.8z m-600.24 0c-34.08 0-61.8-27.72-61.8-61.78 0-34.08 27.72-61.8 61.8-61.8 34.06 0 61.78 27.72 61.78 61.8 0 34.06-27.72 61.78-61.78 61.78z" opacity=".2" p-id="9044"></path><path d="M253.66 339.22c0 23.04-18.74 41.78-41.78 41.78-23.06 0-41.8-18.74-41.8-41.78 0-23.06 18.74-41.8 41.8-41.8 23.04 0 41.78 18.74 41.78 41.8zM524.458 349.2h-13.66l44.84 44.84c1.34-3.62 2.08-7.52 2.08-11.58 0-18.34-14.918-33.26-33.26-33.26z m-12.438-183.7H512c-15.12 0-29.8 1.94-43.8 5.6a172.722 172.722 0 0 0-56.74 26.54 175.54 175.54 0 0 0-27.7 24.52c-8.04 8.8-15.2 18.44-21.32 28.78a177.372 177.372 0 0 0-8.7 16.64 172.676 172.676 0 0 0-14.2 50.98c-0.82 6.78-1.24 13.68-1.24 20.66 0 95.76 77.92 173.68 173.68 173.68h0.02c6.98 0 13.88-0.42 20.64-1.24 17.98-2.12 35.1-7 50.98-14.2 5.72-2.62 11.28-5.52 16.64-8.7 10.34-6.12 19.98-13.28 28.78-21.32 9.12-8.34 17.36-17.62 24.52-27.7a172.812 172.812 0 0 0 32.14-100.52c-0.002-95.78-77.92-173.72-173.68-173.72z m-30.322 102.4c-9.28 5.9-15.44 16.28-15.44 28.06 0 3.62 0.58 7.1 1.66 10.36 3.28 10 11.2 17.92 21.2 21.2 3.28 1.1 6.78 1.68 10.4 1.68h24.94c8.86 0 17.24 2.18 24.6 6.04 9.66 5.04 17.58 12.96 22.6 22.62 3.88 7.36 6.06 15.74 6.06 24.6 0 9.66-2.6 18.72-7.12 26.54a53.362 53.362 0 0 1-26.98 23.12c-5.94 2.32-12.4 3.58-19.16 3.58H522v38.6c0 5.52-4.48 10-10 10-5.54 0-10-4.48-10-10v-38.6h-45.74c-5.52 0-10-4.48-10-10 0-0.14 0-0.26 0.02-0.4 0.2-5.34 4.6-9.6 9.98-9.6h68.2c0.88 0 1.76-0.04 2.62-0.12 13.12-1 24.14-9.68 28.56-21.54 1.34-3.62 2.08-7.52 2.08-11.58 0-18.34-14.92-33.26-33.26-33.26h-24.94c-29.36 0-53.26-23.88-53.26-53.24 0-3.52 0.34-6.96 1-10.3 2.56-13.02 9.9-24.36 20.1-32.1a52.826 52.826 0 0 1 32.16-10.86H502v-38.58c0-5.54 4.46-10 10-10 5.52 0 10 4.46 10 10v38.58h45.72c5.52 0 10 4.48 10 10s-4.48 10-10 10h-68.2c-6.562 0-12.682 1.92-17.822 5.2z" fill="#E1E1E5" p-id="9045"></path><path d="M512.02 175.5c90.254 0 163.68 73.444 163.68 163.72 0 90.254-73.436 163.68-163.72 163.68-90.254 0-163.68-73.426-163.68-163.68 0-90.276 73.436-163.72 163.7-163.72h0.02M492 233.144c-31.35 3.73-55.74 30.478-55.74 62.816 0 34.87 28.378 63.24 63.26 63.24h24.94c12.826 0 23.26 10.434 23.26 23.26 0 12.814-10.434 23.24-23.26 23.24h-68.2c-11.028 0-20 8.972-20 20s8.972 20 20 20H492v28.6c0 11.028 8.972 20 20 20s20-8.972 20-20v-29.046c31.342-3.736 55.72-30.472 55.72-62.794 0-34.882-28.378-63.26-63.26-63.26h-24.94c-12.826 0-23.26-10.426-23.26-23.24 0-12.826 10.434-23.26 23.26-23.26h68.2c11.028 0 20-8.972 20-20s-8.972-20-20-20H532v-28.58c0-11.028-8.972-20-20-20s-20 8.972-20 20v29.024m20.02-67.644H512c-95.78 0-173.7 77.92-173.7 173.72 0 95.76 77.92 173.68 173.68 173.68h0.02c95.78 0 173.7-77.92 173.7-173.68-0.002-95.78-77.92-173.72-173.68-173.72z m-12.5 183.7c-29.36 0-53.26-23.88-53.26-53.24s23.9-53.26 53.26-53.26H502v-38.58c0-5.54 4.46-10 10-10 5.52 0 10 4.46 10 10v38.58h45.72c5.52 0 10 4.48 10 10s-4.48 10-10 10h-68.2c-18.34 0-33.26 14.92-33.26 33.26 0 18.32 14.92 33.24 33.26 33.24h24.94c29.36 0 53.26 23.9 53.26 53.26s-23.9 53.24-53.26 53.24H522v38.6c0 5.52-4.48 10-10 10-5.54 0-10-4.48-10-10v-38.6h-45.74c-5.52 0-10-4.48-10-10s4.48-10 10-10h68.2c18.34 0 33.26-14.92 33.26-33.24 0-18.34-14.92-33.26-33.26-33.26h-24.94z" opacity=".2" p-id="9046"></path><path d="M812.12 277.42c-34.06 0-61.78 27.72-61.78 61.78 0 34.08 27.72 61.8 61.78 61.8 34.08 0 61.8-27.72 61.8-61.8 0-34.06-27.722-61.78-61.8-61.78z m0 103.58c-23.04 0-41.78-18.74-41.78-41.8 0-23.04 18.74-41.78 41.78-41.78 23.06 0 41.8 18.74 41.8 41.78 0 23.06-18.74 41.8-41.8 41.8z" fill="#23130D" p-id="9047"></path><path d="M853.92 339.2c0 23.06-18.74 41.8-41.8 41.8-23.04 0-41.78-18.74-41.78-41.8 0-23.04 18.74-41.78 41.78-41.78 23.06 0 41.8 18.74 41.8 41.78z" fill="#E1E1E5" p-id="9048"></path><path d="M211.88 307.42c17.524 0 31.78 14.266 31.78 31.8 0 17.524-14.256 31.78-31.78 31.78-17.534 0-31.8-14.256-31.8-31.78-0.002-17.534 14.264-31.8 31.8-31.8m0-10c-23.06 0-41.8 18.74-41.8 41.8 0 23.04 18.74 41.78 41.8 41.78 23.04 0 41.78-18.74 41.78-41.78 0-23.06-18.74-41.8-41.78-41.8zM812.12 307.42c17.534 0 31.8 14.256 31.8 31.78 0 17.534-14.266 31.8-31.8 31.8-17.524 0-31.78-14.266-31.78-31.8-0.002-17.524 14.256-31.78 31.78-31.78m0-10c-23.04 0-41.78 18.74-41.78 41.78 0 23.06 18.74 41.8 41.78 41.8 23.06 0 41.8-18.74 41.8-41.8 0-23.04-18.74-41.78-41.8-41.78z" opacity=".2" p-id="9049"></path><path d="M945.942 632.876H647.984c-5.524 0-10 4.476-10 10s4.476 10 10 10h297.958c5.524 0 10-4.476 10-10s-4.476-10-10-10zM376.016 632.876H78.058a10 10 0 1 0 0 20h297.958a10 10 0 1 0 0-20zM945.942 689.292H647.984c-5.524 0-10 4.476-10 10s4.476 10 10 10h297.958c5.524 0 10-4.476 10-10s-4.476-10-10-10zM376.016 689.292H78.058a10 10 0 1 0 0 20h297.958a10 10 0 1 0 0-20zM945.942 745.728H647.984c-5.524 0-10 4.476-10 10s4.476 10 10 10h297.958c5.524 0 10-4.476 10-10s-4.476-10-10-10zM376.016 745.728H78.058a10 10 0 1 0 0 20h297.958a10 10 0 1 0 0-20zM945.942 802.146H647.984c-5.524 0-10 4.476-10 10s4.476 10 10 10h297.958c5.524 0 10-4.476 10-10s-4.476-10-10-10zM376.016 802.146H78.058a10 10 0 1 0 0 20h297.958a10 10 0 1 0 0-20zM945.942 858.586H647.984c-5.524 0-10 4.476-10 10s4.476 10 10 10h297.958c5.524 0 10-4.476 10-10s-4.476-10-10-10zM376.016 858.586H78.058a10 10 0 1 0 0 20h297.958a10 10 0 1 0 0-20zM945.942 915H647.984c-5.524 0-10 4.476-10 10s4.476 10 10 10h297.958c5.524 0 10-4.476 10-10s-4.476-10-10-10zM376.016 915H78.058a10 10 0 1 0 0 20h297.958a10 10 0 1 0 0-20z" fill="#23130D" p-id="9050"></path><path d="M501.86 415.7h-45.6c-5.38 0-9.78 4.26-9.98 9.6l-106.74-106.74a172.676 172.676 0 0 1 14.2-50.98l148.12 148.12zM583.62 497.46c-15.88 7.2-33 12.08-50.98 14.2l-75.96-75.96H502v38.6c0 5.52 4.46 10 10 10 5.52 0 10-4.48 10-10v-38.46l61.62 61.62zM467.92 306.32l21.2 21.2c-10-3.28-17.922-11.2-21.2-21.2z" fill="#FFFFFF" opacity=".4" p-id="9051"></path><path d="M555.64 394.04c-4.42 11.86-15.44 20.54-28.56 21.54l-164.64-164.64c6.12-10.34 13.28-19.98 21.32-28.78l63.5 63.5c-0.66 3.34-1 6.78-1 10.3 0 29.36 23.9 53.24 53.26 53.24h11.28l44.84 44.84zM629.04 467.44c-8.8 8.04-18.44 15.2-28.78 21.32l-56.64-56.64c11.42-4.4 20.94-12.64 26.98-23.12l58.44 58.44zM499.52 242.7c-12.08 0-23.22 4.04-32.16 10.86l-55.9-55.92a172.722 172.722 0 0 1 56.74-26.54l33.8 33.8v37.8h-2.48zM539.8 242.7H522v-17.8zM680.098 383a172.722 172.722 0 0 1-26.54 56.74l-81.9-81.88-22.6-22.62-67.36-67.34c5.14-3.28 11.26-5.2 17.82-5.2h60.28l120.3 120.3z" fill="#FFFFFF" opacity=".4" p-id="9052"></path></svg>