<?xml version="1.0" standalone="no"?><!DOCTYPE svg PUBLIC "-//W3C//DTD SVG 1.1//EN" "http://www.w3.org/Graphics/SVG/1.1/DTD/svg11.dtd"><svg t="1721112173380" class="icon" viewBox="0 0 1024 1024" version="1.1" xmlns="http://www.w3.org/2000/svg" p-id="21400" xmlns:xlink="http://www.w3.org/1999/xlink" width="256" height="256"><path d="M760.993684 320.673684c0 26.408421-5.389474 57.128421-12.395789 86.770527-13.473684 57.667368-49.044211 97.010526-107.250527 112.64-87.848421 23.174737-175.696842 23.713684-263.006315-1.616843C321.212632 501.221053 285.642105 461.877895 274.863158 404.749474 253.305263 289.953684 261.389474 178.930526 332.530526 80.842105 369.717895 29.103158 423.612632 3.233684 487.208421 0.538947 529.785263-1.077895 571.284211 0 611.705263 18.324211c90.543158 40.96 124.496842 119.646316 139.587369 209.650526 4.850526 29.103158 9.701053 54.972632 9.701052 92.698947zM940.463158 1006.214737c-1.077895-2.694737-1.616842-4.850526-2.694737-7.006316-12.934737-40.96-23.174737-83.536842-40.421053-122.341053-78.686316-172.463158-268.395789-272.168421-453.793684-241.448421-175.157895 29.103158-319.056842 170.846316-356.24421 349.776842-1.077895 6.467368-2.155789 11.856842-3.772632 16.707369v22.096842h856.926316v-17.785263z" p-id="21401" fill="#515151"></path></svg>