<?xml version="1.0" standalone="no"?><!DOCTYPE svg PUBLIC "-//W3C//DTD SVG 1.1//EN" "http://www.w3.org/Graphics/SVG/1.1/DTD/svg11.dtd"><svg height="254" node-id="1" sillyvg="true" template-height="254" template-width="257" version="1.1" viewBox="0 0 257 254" width="257" xmlns="http://www.w3.org/2000/svg" xmlns:xlink="http://www.w3.org/1999/xlink"><defs node-id="90"></defs><g node-id="323"><g node-id="328"><path d="M 206.56 20.12 C 176.53 -8.03 129.31 -6.45 101.10 23.65 C 100.66 24.12 100.25 24.61 99.82 25.08 C 74.98 19.65 47.97 27.07 29.28 47.00 C 1.06 77.10 2.54 124.32 32.56 152.47 C 32.96 152.84 33.36 153.18 33.76 153.53 C 27.68 178.76 34.92 206.43 55.17 225.41 C 85.20 253.56 132.42 251.97 160.64 221.87 C 162.24 220.16 163.74 218.39 165.15 216.57 C 186.61 217.90 208.49 209.99 224.36 193.06 C 250.44 165.24 251.13 122.80 227.38 94.31 C 234.49 68.47 227.43 39.69 206.56 20.12 Z" fill="#d4ddfc" fill-opacity="0.63" fill-rule="nonzero" group-id="1,6" node-id="94" stroke="none" target-height="261.588" target-width="250.069" target-x="1.064" target-y="-8.032"></path></g><path d="M 256.00 169.61 L 0.00 169.61 L 0.00 205.54 C 14.80 233.22 44.03 252.06 77.67 252.06 C 80.43 252.06 83.16 251.91 85.86 251.67 C 86.40 252.31 86.95 252.96 87.50 253.59 L 219.95 253.59 C 231.24 240.71 238.82 224.53 241.03 206.67 C 246.37 203.86 251.38 200.51 256.00 196.71 L 256.00 169.61 Z" fill="#d6f0ff" fill-rule="nonzero" group-id="1" node-id="97" stroke="none" target-height="83.983" target-width="256" target-x="0" target-y="169.607"></path><path d="M 1.00 168.11 L 257.00 168.11 L 257.00 171.11 L 1.00 171.11 Z" fill="#ccccde" fill-rule="nonzero" group-id="1" node-id="99" stroke="none" target-height="3" target-width="256" target-x="1" target-y="168.107"></path><path d="M 8.00 190.51 L 42.00 190.51 L 42.00 193.51 L 8.00 193.51 Z" fill="#ffffff" fill-rule="nonzero" group-id="1" node-id="101" stroke="none" target-height="3" target-width="34" target-x="8" target-y="190.507"></path><path d="M 33.33 218.16 L 79.33 218.16 L 79.33 221.16 L 33.33 221.16 Z" fill="#ffffff" fill-rule="nonzero" group-id="1" node-id="103" stroke="none" target-height="3" target-width="46" target-x="33.333" target-y="218.156"></path><path d="M 115.33 186.74 L 154.67 186.74 L 154.67 189.74 L 115.33 189.74 Z" fill="#ffffff" fill-opacity="0.61" fill-rule="nonzero" group-id="1,7" node-id="107" stroke="none" target-height="3" target-width="39.334007" target-x="115.333" target-y="186.736"></path><path d="M 228.00 199.31 L 240.67 199.31 L 240.67 202.31 L 228.00 202.31 Z" fill="#ffffff" fill-rule="nonzero" group-id="1" node-id="110" stroke="none" target-height="3" target-width="12.667007" target-x="228" target-y="199.305"></path><path d="M 195.33 191.76 L 205.33 191.76 L 205.33 194.76 L 195.33 194.76 Z" fill="#ffffff" fill-opacity="0.48" fill-rule="nonzero" group-id="1,8" node-id="114" stroke="none" target-height="3" target-width="10" target-x="195.334" target-y="191.764"></path><path d="M 79.33 198.05 L 94.67 198.05 L 94.67 201.05 L 79.33 201.05 Z" fill="#ffffff" fill-opacity="0.48" fill-rule="nonzero" group-id="1,9" node-id="119" stroke="none" target-height="3" target-width="15.334" target-x="79.333" target-y="198.048"></path><path d="M 8.67 228.21 L 14.00 228.21 L 14.00 231.21 L 8.67 231.21 Z" fill="#ffffff" fill-opacity="0.48" fill-rule="nonzero" group-id="1,10" node-id="124" stroke="none" target-height="3" target-width="5.333" target-x="8.667" target-y="228.21"></path><path d="M 1.00 169.61 L 257.00 169.61 L 257.00 177.58 L 1.00 177.58 Z" fill="#6e6e96" fill-opacity="0.1" fill-rule="nonzero" group-id="1,11" node-id="129" stroke="none" target-height="7.973999" target-width="256" target-x="1" target-y="169.607"></path><path d="M 67.00 126.59 L 37.00 126.59 C 35.34 126.59 34.00 125.25 34.00 123.59 C 34.00 121.93 35.34 120.59 37.00 120.59 L 67.00 120.59 C 68.66 120.59 70.00 121.93 70.00 123.59 C 70.00 125.25 68.66 126.59 67.00 126.59 Z" fill="#ffffff" fill-rule="nonzero" group-id="1" node-id="132" stroke="none" target-height="6" target-width="36" target-x="34" target-y="120.59"></path><path d="M 213.04 99.59 L 187.00 99.59 C 185.34 99.59 184.00 98.25 184.00 96.59 C 184.00 94.93 185.34 93.59 187.00 93.59 L 213.04 93.59 C 214.70 93.59 216.04 94.93 216.04 96.59 C 216.04 98.25 214.70 99.59 213.04 99.59 Z" fill="#ffffff" fill-opacity="0.55" fill-rule="nonzero" group-id="1,12" node-id="136" stroke="none" target-height="6" target-width="32.044006" target-x="184" target-y="93.59"></path><path d="M 200.88 52.59 L 184.00 52.59 C 182.34 52.59 181.00 51.25 181.00 49.59 C 181.00 47.93 182.34 46.59 184.00 46.59 L 200.88 46.59 C 202.53 46.59 203.88 47.93 203.88 49.59 C 203.88 51.25 202.53 52.59 200.88 52.59 Z" fill="#ffffff" fill-rule="nonzero" group-id="1" node-id="139" stroke="none" target-height="6" target-width="22.875" target-x="181" target-y="46.59"></path><path d="M 46.85 86.13 L 43.86 85.98 C 43.86 80.54 36.42 78.79 36.35 78.77 C 35.54 78.59 35.04 77.78 35.22 76.98 C 35.40 76.17 36.21 75.67 37.02 75.85 C 37.32 75.92 42.69 77.19 45.37 81.11 C 46.81 78.53 49.38 76.20 53.64 76.20 C 54.47 76.20 55.14 76.88 55.14 77.70 C 55.14 78.53 54.47 79.20 53.64 79.20 C 47.58 79.20 46.88 85.84 46.85 86.13 Z" fill="#ffffff" fill-rule="nonzero" group-id="1,13" node-id="143" stroke="none" target-height="10.460999" target-width="20.103" target-x="35.036" target-y="75.665"></path><path d="M 48.51 87.09 L 41.81 87.09 C 40.98 87.09 40.31 86.42 40.31 85.59 C 40.31 84.76 40.98 84.09 41.81 84.09 L 48.51 84.09 C 49.34 84.09 50.01 84.76 50.01 85.59 C 50.01 86.42 49.34 87.09 48.51 87.09 Z" fill="#ffffff" fill-rule="nonzero" group-id="1,13" node-id="145" stroke="none" target-height="3" target-width="9.703003" target-x="40.309" target-y="84.09"></path><path d="M 208.74 122.69 L 205.74 122.54 C 205.74 116.94 198.07 115.11 197.99 115.09 C 197.18 114.90 196.68 114.10 196.86 113.29 C 197.05 112.48 197.86 111.98 198.66 112.16 C 198.97 112.23 204.53 113.55 207.26 117.61 C 208.72 114.95 211.37 112.53 215.76 112.53 C 216.58 112.53 217.26 113.20 217.26 114.03 C 217.26 114.86 216.58 115.53 215.76 115.53 C 209.53 115.53 208.77 122.40 208.74 122.69 Z" fill="#ffffff" fill-rule="nonzero" group-id="1,14" node-id="150" stroke="none" target-height="10.711006" target-width="20.576996" target-x="196.679" target-y="111.979"></path><path d="M 210.49 123.64 L 203.59 123.64 C 202.77 123.64 202.09 122.97 202.09 122.14 C 202.09 121.31 202.77 120.64 203.59 120.64 L 210.49 120.64 C 211.31 120.64 211.99 121.31 211.99 122.14 C 211.99 122.97 211.31 123.64 210.49 123.64 Z" fill="#ffffff" fill-rule="nonzero" group-id="1,14" node-id="152" stroke="none" target-height="3" target-width="9.890991" target-x="202.095" target-y="120.637"></path></g><g node-id="324"><g node-id="337"><path d="M 194.67 161.40 L 202.70 169.43 L 213.28 169.43 L 221.31 161.40 Z" fill="#ffffff" fill-rule="nonzero" group-id="2,15" node-id="159" stroke="none" target-height="8.032013" target-width="26.64" target-x="194.667" target-y="161.4"></path><path d="M 213.28 170.93 L 202.70 170.93 C 202.30 170.93 201.92 170.77 201.64 170.49 L 193.61 162.46 C 193.18 162.03 193.05 161.39 193.28 160.83 C 193.51 160.27 194.06 159.90 194.67 159.90 L 221.31 159.90 C 221.91 159.90 222.46 160.27 222.69 160.83 C 222.93 161.39 222.80 162.03 222.37 162.46 L 214.34 170.49 C 214.06 170.77 213.67 170.93 213.28 170.93 Z M 203.32 167.93 L 212.65 167.93 L 217.69 162.90 L 198.29 162.90 L 203.32 167.93 Z" fill="#ccccde" fill-rule="nonzero" group-id="2,15" node-id="161" stroke="none" target-height="11.031006" target-width="29.87799" target-x="193.048" target-y="159.901"></path></g><g node-id="338"><path d="M 207.23 161.40 L 207.23 143.26 L 217.69 153.72 Z" fill="#ffffff" fill-rule="nonzero" group-id="2,16" node-id="166" stroke="none" target-height="18.141998" target-width="10.466003" target-x="207.229" target-y="143.258"></path><path d="M 207.23 162.90 C 207.00 162.90 206.76 162.85 206.55 162.74 C 206.05 162.48 205.73 161.97 205.73 161.40 L 205.73 143.26 C 205.73 142.65 206.09 142.10 206.66 141.87 C 207.22 141.64 207.86 141.77 208.29 142.20 L 218.76 152.66 C 219.07 152.97 219.23 153.40 219.19 153.84 C 219.16 154.28 218.94 154.68 218.58 154.93 L 208.12 162.61 C 207.85 162.80 207.54 162.90 207.23 162.90 Z M 208.73 146.88 L 208.73 158.44 L 215.40 153.55 L 208.73 146.88 Z" fill="#ccccde" fill-rule="nonzero" group-id="2,16" node-id="168" stroke="none" target-height="21.261993" target-width="13.496994" target-x="205.729" target-y="141.638"></path></g></g><g node-id="325"><g node-id="339"><path d="M 191.56 94.22 C 191.56 125.39 161.75 173.35 124.97 173.35 C 88.20 173.35 58.38 125.39 58.38 94.22 C 58.38 63.05 88.20 37.77 124.97 37.77 C 161.75 37.77 191.56 63.05 191.56 94.22 Z" fill="#e8829b" fill-rule="nonzero" group-id="3,17" node-id="176" stroke="none" target-height="135.57901" target-width="133.18" target-x="58.384" target-y="37.775"></path><path d="M 124.97 174.85 C 87.39 174.85 56.88 126.06 56.88 94.22 C 56.88 62.27 87.43 36.27 124.97 36.27 C 162.52 36.27 193.06 62.27 193.06 94.22 C 193.06 126.06 162.56 174.85 124.97 174.85 Z M 124.97 39.27 C 89.08 39.27 59.88 63.92 59.88 94.22 C 59.88 124.88 89.05 171.85 124.97 171.85 C 134.38 171.85 152.86 168.31 170.87 144.57 C 182.71 128.96 190.06 109.66 190.06 94.22 C 190.06 63.92 160.87 39.27 124.97 39.27 Z" fill="#6e6e96" fill-rule="nonzero" group-id="3,17" node-id="178" stroke="none" target-height="138.57901" target-width="136.18" target-x="56.884" target-y="36.275"></path></g><path d="M 180.00 89.94 C 180.00 117.29 153.83 159.39 121.56 159.39 C 89.28 159.39 63.12 117.29 63.12 89.94 C 63.12 62.58 89.28 40.40 121.56 40.40 C 153.83 40.41 180.00 62.58 180.00 89.94 Z" fill="#ff8faa" fill-rule="nonzero" group-id="3" node-id="181" stroke="none" target-height="118.984" target-width="116.877" target-x="63.118" target-y="40.404"></path><path d="M 142.98 43.84 C 142.98 43.84 174.81 72.01 158.24 140.51 L 147.43 151.32 C 147.43 151.32 166.90 84.28 142.98 43.84 Z" fill="#e8829b" fill-rule="nonzero" group-id="3" node-id="183" stroke="none" target-height="107.485" target-width="31.832" target-x="142.979" target-y="43.838"></path><path d="M 154.89 94.01 C 154.89 126.91 141.81 173.35 125.68 173.35 C 109.54 173.35 96.46 126.91 96.46 94.01 C 96.46 61.11 109.54 37.77 125.68 37.77 C 141.81 37.77 154.89 61.11 154.89 94.01 Z" fill="#ffeb36" fill-rule="nonzero" group-id="3,18" node-id="187" stroke="none" target-height="135.57901" target-width="58.42901" target-x="96.464" target-y="37.775"></path><path d="M 125.68 174.85 C 107.86 174.85 94.96 126.56 94.96 94.01 C 94.96 61.09 108.17 36.27 125.68 36.27 C 143.19 36.27 156.39 61.09 156.39 94.01 C 156.39 126.56 143.50 174.85 125.68 174.85 Z M 125.68 39.27 C 109.88 39.27 97.96 62.80 97.96 94.01 C 97.96 128.00 111.40 171.85 125.68 171.85 C 132.28 171.85 139.29 162.26 144.91 145.54 C 150.14 129.99 153.39 110.24 153.39 94.01 C 153.39 78.55 150.42 64.43 145.01 54.26 C 139.88 44.60 133.01 39.27 125.68 39.27 Z" fill="#6e6e96" fill-rule="nonzero" group-id="3,18" node-id="189" stroke="none" target-height="138.57901" target-width="61.430008" target-x="94.963" target-y="36.275"></path><path d="M 138.19 47.62 C 143.90 56.27 147.55 69.76 147.55 85.92 C 147.55 114.38 136.23 154.57 122.27 154.57 C 110.04 154.57 99.85 123.77 97.50 97.00 C 97.84 128.34 110.20 171.51 125.40 171.51 C 140.82 171.51 153.31 127.14 153.31 95.71 C 153.31 73.67 147.17 56.14 138.19 47.62 Z" fill="#f5ca34" fill-rule="nonzero" group-id="3" node-id="192" stroke="none" target-height="123.88999" target-width="55.815002" target-x="97.5" target-y="47.622"></path><path d="M 101.19 203.23 C 101.19 198.89 104.73 195.34 109.07 195.34 L 142.07 195.34 C 146.41 195.34 149.96 198.89 149.96 203.23 L 149.96 214.87 C 149.96 219.20 146.41 222.75 142.07 222.75 L 109.07 222.75 C 104.73 222.75 101.19 219.20 101.19 214.87 L 101.19 203.23 Z" fill="#ffe5ad" fill-rule="nonzero" group-id="3" node-id="194" stroke="none" target-height="27.412003" target-width="48.772995" target-x="101.185" target-y="195.342"></path><path d="M 101.70 203.62 L 145.75 203.62 L 145.75 208.49 L 101.70 208.49 Z" fill="#6e6e96" fill-opacity="0.15" fill-rule="nonzero" group-id="3,19" node-id="198" stroke="none" target-height="4.8650055" target-width="44.046005" target-x="101.705" target-y="203.625"></path><path d="M 144.62 194.79 C 145.34 195.97 145.75 197.35 145.75 198.82 L 145.75 210.46 C 145.75 214.80 142.20 218.35 137.86 218.35 L 104.87 218.35 C 103.97 218.35 103.12 218.19 102.31 217.91 C 103.69 220.22 106.21 221.77 109.07 221.77 L 142.07 221.77 C 146.41 221.77 149.96 218.22 149.96 213.88 L 149.96 202.24 C 149.96 198.80 147.72 195.86 144.62 194.79 Z" fill="#6e6e96" fill-opacity="0.15" fill-rule="nonzero" group-id="3,20" node-id="203" stroke="none" target-height="26.977005" target-width="47.64399" target-x="102.314" target-y="194.791"></path><path d="M 142.07 224.25 L 109.07 224.25 C 103.90 224.25 99.69 220.04 99.69 214.87 L 99.69 203.23 C 99.69 198.05 103.90 193.84 109.07 193.84 L 142.07 193.84 C 147.25 193.84 151.46 198.05 151.46 203.23 L 151.46 214.87 C 151.46 220.04 147.25 224.25 142.07 224.25 Z M 109.07 196.84 C 105.55 196.84 102.69 199.71 102.69 203.23 L 102.69 214.87 C 102.69 218.39 105.55 221.25 109.07 221.25 L 142.07 221.25 C 145.59 221.25 148.46 218.39 148.46 214.87 L 148.46 203.23 C 148.46 199.71 145.59 196.84 142.07 196.84 L 109.07 196.84 Z" fill="#6e6e96" fill-rule="nonzero" group-id="3" node-id="206" stroke="none" target-height="30.412003" target-width="51.772995" target-x="99.685" target-y="193.842"></path><path d="M 154.16 199.68 C 154.16 201.85 152.39 203.62 150.22 203.62 L 101.70 203.62 C 99.53 203.62 97.76 201.85 97.76 199.68 L 97.76 195.34 C 97.76 193.17 99.53 191.40 101.70 191.40 L 150.22 191.40 C 152.39 191.40 154.16 193.17 154.16 195.34 L 154.16 199.68 Z" fill="#ffe5ad" fill-rule="nonzero" group-id="3,21" node-id="210" stroke="none" target-height="12.225998" target-width="56.400993" target-x="97.76" target-y="191.399"></path><path d="M 150.22 205.12 L 101.70 205.12 C 98.70 205.12 96.26 202.68 96.26 199.68 L 96.26 195.34 C 96.26 192.34 98.70 189.90 101.70 189.90 L 150.22 189.90 C 153.22 189.90 155.66 192.34 155.66 195.34 L 155.66 199.68 C 155.66 202.68 153.22 205.12 150.22 205.12 Z M 101.70 192.90 C 100.36 192.90 99.26 194.00 99.26 195.34 L 99.26 199.68 C 99.26 201.03 100.36 202.12 101.70 202.12 L 150.22 202.12 C 151.56 202.12 152.66 201.03 152.66 199.68 L 152.66 195.34 C 152.66 193.99 151.56 192.90 150.22 192.90 L 101.70 192.90 Z" fill="#6e6e96" fill-rule="nonzero" group-id="3,21" node-id="212" stroke="none" target-height="15.225998" target-width="59.400993" target-x="96.26" target-y="189.899"></path><path d="M 127.18 83.00 C 126.06 98.06 122.39 109.94 117.03 109.55 C 111.67 109.15 108.23 96.61 109.36 81.56 C 110.48 66.49 115.73 57.76 121.09 58.16 C 126.45 58.56 128.31 67.94 127.18 83.00 Z" fill="#ffffff" fill-opacity="0.73" fill-rule="nonzero" group-id="3,22" node-id="217" stroke="none" target-height="52.182" target-width="20.071999" target-x="108.234" target-y="57.763"></path><path d="M 83.41 85.54 C 82.53 97.33 83.78 106.67 78.42 106.27 C 73.06 105.87 69.43 95.99 70.31 84.20 C 71.19 72.41 76.29 65.65 81.65 66.05 C 87.01 66.45 84.28 73.75 83.41 85.54 Z" fill="#ffffff" fill-opacity="0.29" fill-rule="nonzero" group-id="3,23" node-id="222" stroke="none" target-height="41.014" target-width="17.577003" target-x="69.43" target-y="65.651"></path><path d="M 175.35 138.12 L 177.90 139.71 L 145.32 192.19 L 142.77 190.61 Z" fill="#6e6e96" fill-rule="nonzero" group-id="3,24" node-id="227" stroke="none" target-height="54.0654" target-width="35.128403" target-x="142.77234" target-y="138.1229"></path><path d="M 74.60 138.13 L 106.69 190.61 L 104.13 192.18 L 72.04 139.70 Z" fill="#6e6e96" fill-rule="nonzero" group-id="3,25" node-id="232" stroke="none" target-height="54.046967" target-width="34.653755" target-x="72.038445" target-y="138.1312"></path><path d="M 142.66 168.52 L 145.47 169.58 L 137.06 191.93 L 134.25 190.88 Z" fill="#6e6e96" fill-rule="nonzero" group-id="3,26" node-id="237" stroke="none" target-height="23.411163" target-width="11.21817" target-x="134.25278" target-y="168.5221"></path><path d="M 106.83 168.56 L 114.46 190.91 L 111.62 191.88 L 104.00 169.53 Z" fill="#6e6e96" fill-rule="nonzero" group-id="3,27" node-id="242" stroke="none" target-height="23.318893" target-width="10.464798" target-x="103.99571" target-y="168.56384"></path><path d="M 122.58 173.20 L 125.58 173.20 L 125.58 191.40 L 122.58 191.40 Z" fill="#6e6e96" fill-rule="nonzero" group-id="3" node-id="245" stroke="none" target-height="18.19899" target-width="3" target-x="122.575" target-y="173.199"></path><path d="M 147.03 194.69 L 150.03 194.69 L 150.03 200.47 L 147.03 200.47 Z" fill="#6e6e96" fill-opacity="0.32" fill-rule="nonzero" group-id="3,28,31" node-id="251" stroke="none" target-height="5.7829895" target-width="3" target-x="147.027" target-y="194.686"></path><path d="M 139.40 194.69 L 142.40 194.69 L 142.40 200.47 L 139.40 200.47 Z" fill="#6e6e96" fill-opacity="0.32" fill-rule="nonzero" group-id="3,28,32" node-id="256" stroke="none" target-height="5.7829895" target-width="3" target-x="139.396" target-y="194.686"></path><path d="M 131.20 194.69 L 134.20 194.69 L 134.20 200.47 L 131.20 200.47 Z" fill="#6e6e96" fill-opacity="0.32" fill-rule="nonzero" group-id="3,28,33" node-id="261" stroke="none" target-height="5.7829895" target-width="3" target-x="131.198" target-y="194.686"></path><path d="M 124.13 194.69 L 127.13 194.69 L 127.13 200.47 L 124.13 200.47 Z" fill="#6e6e96" fill-opacity="0.32" fill-rule="nonzero" group-id="3,28,34" node-id="266" stroke="none" target-height="5.7829895" target-width="3" target-x="124.134" target-y="194.686"></path><path d="M 116.50 194.69 L 119.50 194.69 L 119.50 200.47 L 116.50 200.47 Z" fill="#6e6e96" fill-opacity="0.32" fill-rule="nonzero" group-id="3,28,35" node-id="271" stroke="none" target-height="5.7829895" target-width="3" target-x="116.501" target-y="194.686"></path><path d="M 109.15 194.69 L 112.15 194.69 L 112.15 200.47 L 109.15 200.47 Z" fill="#6e6e96" fill-opacity="0.32" fill-rule="nonzero" group-id="3,28,36" node-id="276" stroke="none" target-height="5.7829895" target-width="3" target-x="109.151" target-y="194.686"></path><path d="M 101.80 194.69 L 104.80 194.69 L 104.80 200.47 L 101.80 200.47 Z" fill="#6e6e96" fill-opacity="0.32" fill-rule="nonzero" group-id="3,28,37" node-id="281" stroke="none" target-height="5.7829895" target-width="3" target-x="101.802" target-y="194.686"></path><path d="M 143.48 207.18 L 146.48 207.18 L 146.48 218.22 L 143.48 218.22 Z" fill="#6e6e96" fill-opacity="0.35" fill-rule="nonzero" group-id="3,29" node-id="287" stroke="none" target-height="11.042999" target-width="3" target-x="143.479" target-y="207.176"></path><path d="M 105.02 207.18 L 108.02 207.18 L 108.02 218.22 L 105.02 218.22 Z" fill="#6e6e96" fill-opacity="0.35" fill-rule="nonzero" group-id="3,29" node-id="289" stroke="none" target-height="11.042999" target-width="3" target-x="105.022" target-y="207.176"></path><path d="M 110.54 207.18 L 113.54 207.18 L 113.54 218.22 L 110.54 218.22 Z" fill="#6e6e96" fill-opacity="0.35" fill-rule="nonzero" group-id="3,29" node-id="291" stroke="none" target-height="11.042999" target-width="3" target-x="110.544" target-y="207.176"></path><path d="M 116.46 207.27 L 119.46 207.27 L 119.46 218.32 L 116.46 218.32 Z" fill="#6e6e96" fill-opacity="0.35" fill-rule="nonzero" group-id="3,29" node-id="293" stroke="none" target-height="11.042999" target-width="3" target-x="116.462" target-y="207.273"></path><path d="M 121.98 207.27 L 124.98 207.27 L 124.98 218.32 L 121.98 218.32 Z" fill="#6e6e96" fill-opacity="0.35" fill-rule="nonzero" group-id="3,29" node-id="295" stroke="none" target-height="11.042999" target-width="3" target-x="121.983" target-y="207.273"></path><path d="M 138.25 207.18 L 141.25 207.18 L 141.25 218.22 L 138.25 218.22 Z" fill="#6e6e96" fill-opacity="0.35" fill-rule="nonzero" group-id="3,29" node-id="297" stroke="none" target-height="11.042999" target-width="3" target-x="138.253" target-y="207.176"></path><path d="M 133.42 207.18 L 136.42 207.18 L 136.42 218.22 L 133.42 218.22 Z" fill="#6e6e96" fill-opacity="0.35" fill-rule="nonzero" group-id="3,29" node-id="299" stroke="none" target-height="11.042999" target-width="3" target-x="133.421" target-y="207.176"></path><path d="M 127.70 207.18 L 130.70 207.18 L 130.70 218.22 L 127.70 218.22 Z" fill="#6e6e96" fill-opacity="0.35" fill-rule="nonzero" group-id="3,29" node-id="301" stroke="none" target-height="11.042999" target-width="2.9999924" target-x="127.702" target-y="207.176"></path><path d="M 149.42 199.48 L 102.19 199.48 C 100.08 199.48 98.35 197.71 98.35 195.54 L 98.35 199.09 C 98.35 201.26 100.08 203.03 102.19 203.03 L 149.42 203.03 C 151.53 203.03 153.26 201.26 153.26 199.09 L 153.26 195.54 C 153.26 197.71 151.53 199.48 149.42 199.48 Z" fill="#6e6e96" fill-opacity="0.2" fill-rule="nonzero" group-id="3,30" node-id="306" stroke="none" target-height="7.4920044" target-width="54.910004" target-x="98.351" target-y="195.541"></path></g><g node-id="326"><path d="M 239.63 21.50 C 239.63 21.41 239.64 21.32 239.64 21.23 C 239.64 11.68 231.21 3.93 220.82 3.93 C 211.87 3.93 204.38 9.67 202.47 17.37 C 202.18 17.34 201.88 17.33 201.58 17.33 C 195.40 17.33 190.39 21.94 190.39 27.62 C 190.39 28.84 190.62 30.01 191.04 31.09 C 189.31 33.34 188.28 36.10 188.28 39.07 C 188.28 46.60 194.84 52.72 202.99 52.88 L 202.99 52.89 L 231.91 52.89 C 241.82 52.89 249.86 45.51 249.86 36.40 C 249.86 29.82 245.68 24.15 239.63 21.50 Z" fill="#ffffff" fill-rule="nonzero" group-id="4" node-id="312" stroke="none" target-height="48.96" target-width="61.57599" target-x="188.283" target-y="3.931"></path><path d="M 231.91 54.39 L 202.99 54.39 C 202.93 54.39 202.87 54.39 202.81 54.38 C 193.96 54.12 186.78 47.28 186.78 39.07 C 186.78 36.13 187.67 33.30 189.37 30.84 C 189.05 29.79 188.89 28.71 188.89 27.62 C 188.89 21.19 194.46 15.95 201.35 15.83 C 203.90 7.88 211.73 2.43 220.82 2.43 C 231.78 2.43 240.74 10.49 241.13 20.54 C 247.38 23.66 251.36 29.79 251.36 36.40 C 251.36 46.32 242.64 54.39 231.91 54.39 Z M 203.14 51.39 L 231.91 51.39 C 240.98 51.39 248.36 44.66 248.36 36.40 C 248.36 30.67 244.70 25.36 239.03 22.87 C 238.49 22.63 238.13 22.09 238.13 21.50 L 238.14 21.30 C 238.14 12.52 230.37 5.43 220.82 5.43 C 212.80 5.43 205.69 10.60 203.93 17.73 C 203.75 18.44 203.07 18.93 202.35 18.86 C 202.10 18.84 201.84 18.83 201.58 18.83 C 196.24 18.83 191.89 22.77 191.89 27.62 C 191.89 28.62 192.07 29.60 192.44 30.55 C 192.63 31.04 192.55 31.59 192.23 32.00 C 190.63 34.09 189.78 36.53 189.78 39.07 C 189.78 45.71 195.72 51.24 203.02 51.38 C 203.06 51.38 203.10 51.39 203.14 51.39 Z" fill="#ccccde" fill-rule="nonzero" group-id="4" node-id="314" stroke="none" target-height="51.96" target-width="64.576996" target-x="186.783" target-y="2.431"></path></g><g node-id="327"><path d="M 35.62 123.17 C 35.62 123.11 35.62 123.06 35.62 123.00 C 35.62 117.02 30.34 112.16 23.83 112.16 C 18.22 112.16 13.53 115.76 12.34 120.58 C 12.15 120.57 11.97 120.56 11.78 120.56 C 7.90 120.56 4.76 123.44 4.76 127.00 C 4.76 127.77 4.91 128.50 5.17 129.18 C 4.09 130.59 3.45 132.31 3.45 134.18 C 3.45 138.90 7.55 142.73 12.66 142.83 L 12.66 142.84 L 30.78 142.84 C 36.99 142.84 42.02 138.21 42.02 132.50 C 42.02 128.38 39.41 124.83 35.62 123.17 Z" fill="#ffffff" fill-rule="nonzero" group-id="5" node-id="319" stroke="none" target-height="30.671997" target-width="38.577" target-x="3.447" target-y="112.164"></path><path d="M 30.78 144.34 L 12.66 144.34 C 12.61 144.34 12.56 144.33 12.51 144.33 C 6.68 144.15 1.95 139.62 1.95 134.18 C 1.95 132.31 2.49 130.51 3.52 128.93 C 3.35 128.30 3.27 127.66 3.27 127.00 C 3.27 122.80 6.79 119.34 11.23 119.08 C 13.02 114.07 18.03 110.66 23.83 110.66 C 30.88 110.66 36.66 115.78 37.10 122.22 C 41.03 124.31 43.52 128.25 43.52 132.50 C 43.52 139.03 37.81 144.34 30.78 144.34 Z M 12.77 141.34 L 30.78 141.34 C 36.15 141.34 40.52 137.37 40.52 132.50 C 40.52 129.14 38.36 126.01 35.02 124.54 C 34.47 124.30 34.12 123.77 34.12 123.17 C 34.12 123.15 34.12 123.05 34.12 123.03 C 34.12 117.85 29.50 113.66 23.83 113.66 C 19.06 113.66 14.84 116.72 13.79 120.94 C 13.62 121.65 12.94 122.13 12.22 122.08 C 12.07 122.06 11.93 122.06 11.78 122.06 C 8.74 122.06 6.27 124.28 6.27 127.00 C 6.27 127.56 6.37 128.11 6.57 128.63 C 6.76 129.12 6.68 129.68 6.37 130.09 C 5.44 131.30 4.95 132.71 4.95 134.17 C 4.95 138.03 8.42 141.25 12.69 141.33 C 12.72 141.33 12.74 141.33 12.77 141.34 Z" fill="#ccccde" fill-rule="nonzero" group-id="5" node-id="321" stroke="none" target-height="33.671997" target-width="41.578003" target-x="1.947" target-y="110.664"></path></g></svg>