<?xml version="1.0" encoding="UTF-8"?>
<svg width="1647px" height="2500px" viewBox="0 0 1647 2500" version="1.1" xmlns="http://www.w3.org/2000/svg" xmlns:xlink="http://www.w3.org/1999/xlink">
    <!-- Generator: Sketch 62 (91390) - https://sketch.com -->
    <title>a mono/sitting</title>
    <desc>Created with Sketch.</desc>
    <g id="a-mono/sitting" stroke="none" stroke-width="1" fill="none" fill-rule="evenodd">
        <g id="pose/sitting/crossed_legs" transform="translate(-81.000000, 637.000000)">
            <path d="M1716.22783,744.777053 C1708.42012,742.534182 1698.66551,741.957625 1690.12362,741.547911 C1659.93228,739.771777 1629.14726,754.164585 1599.54432,760.651381 C1586.58571,763.854124 1572.86439,767.626032 1558.99729,770.435956 C1546.68624,772.106493 1533.95898,773.359924 1521.16304,774.157178 C1510.82003,774.466576 1498.78469,773.674602 1495.25321,784.546821 C1474.46366,788.577441 1456.06046,790.253258 1436.24277,786.827706 C1438.09883,780.514089 1439.15627,773.914306 1437.23683,767.113889 C1438.20553,765.502486 1439.52389,763.322973 1440.2285,761.854125 L1437.84636,761.854125 C1403.06188,747.932277 1365.44736,738.424365 1330.48013,723.999878 C1284.84029,707.553217 1217.62283,675.776051 1164.88834,654.077018 C1168.46313,634.501532 1169.78783,614.612424 1168.27193,595.276642 L1170.39103,593.563866 C1171.08718,589.764502 1172.16891,585.217515 1174.12956,581.774012 C1176.61733,575.174229 1176.67543,566.165788 1177.66315,558.706449 C1179.72309,544.116175 1181.09849,522.147871 1177.3494,504.824759 C1175.71201,481.332697 1159.87371,463.222891 1142.79627,448.695975 C1121.82818,427.962094 1100.83369,407.732966 1080.36421,386.198663 C967.07486,270.723569 958.115701,125.282289 780.767467,81.0795776 L780.680843,80.3932001 C779.283253,78.8345952 778.711751,77.5980598 777.119787,80.061627 C771.264273,77.8177006 763.962574,78.0056624 759.058859,74.2126347 C750.353231,66.272831 744.176578,57.1070515 740.138037,46.229552 C737.026998,25.6677941 739.228494,-6.02278307 721.211934,-19.1790558 C701.200929,-31.1642629 594.8784,-39.6975192 585.709022,-13.4937382 C580.020416,-8.15160928 577.432285,-1.36491976 575.654397,6.94447185 C569.730219,18.1482646 565.992746,30.5716973 560.025256,41.9476124 C547.338133,67.462904 539.114215,61.8082094 516.714735,67.6392502 C514.282948,62.2210918 506.902021,63.31296 501.522935,64.0996542 C436.382321,73.2527622 356.962621,98.2316234 329.072077,159.450161 L331.445763,159.147098 C283.303359,249.584198 314.524669,364.595724 323.135222,460.434086 C330.099935,545.624093 322.13483,631.219591 303.206614,710.682043 C279.97365,794.980815 278.640498,889.275356 324.736694,965.580471 C329.421739,974.31436 335.126191,986.65754 345.219901,981.178135 C350.751106,985.359758 356.964733,988.247824 365.546764,990.763133 C367.913055,992.479077 370.3628,995.361862 372.840011,996.593118 C372.956213,996.759961 376.944047,994.461124 377.15321,994.399878 C384.690481,1005.15489 798.479789,1041.09044 841.420578,1046.66911 C879.252713,1051.22982 929.241668,1062.87607 960.072117,1035.59098 C985.549889,1028.31221 1012.20975,1009.36396 1032.57042,990.549828 C1044.92584,1169.70808 1051.7585,1536.62332 1062.78288,1539.17981 C1067.60737,1540.81445 1074.11995,1542.77326 1079.58038,1544.3382 C1079.61313,1557.20936 1080.57127,1571.83449 1079.55925,1584.48812 C1077.86693,1598.78061 1073.57803,1615.65494 1071.63746,1630.67816 C1063.29734,1630.12061 1060.84443,1638.48491 1059.87361,1644.16706 C1052.67438,1691.10366 1052.88777,1728.94524 1053.40434,1780.53548 C1138.06263,1830.39395 1237.28206,1857.81314 1332.54112,1890.03593 C1341.66508,1896.89125 1361.43628,1889.47626 1371.97156,1887.62305 C1408.54766,1880.42242 1450.10882,1859.1236 1440.87606,1820.07188 C1434.11628,1790.66853 1405.73346,1773.74985 1381.84132,1756.45103 C1355.70225,1737.51651 1328.14658,1718.59678 1304.1076,1696.05192 C1284.82233,1677.88614 1270.41964,1663.79429 1254.33626,1643.29483 C1247.20253,1633.76158 1239.59553,1618.09844 1229.99938,1611.07099 C1240.13746,1599.04671 1219.65319,1610.31703 1211.89831,1611.01186 C1207.3358,1589.54091 1201.68734,1568.92636 1194.91383,1548.32975 L1201.49825,1548.62753 C1223.11601,1528.4417 1235.2348,1431.5347 1236.74014,1402.78604 C1247.57648,1215.37119 1247.31873,999.360803 1203.84869,841.525657 C1236.86796,861.856159 1273.07644,878.837138 1305.91401,898.943775 C1326.62011,911.072594 1347.6294,927.91313 1370.84018,933.793801 C1372.35186,938.13593 1377.88623,939.823363 1380.90642,935.572046 C1385.06117,936.08419 1390.41384,934.360854 1390.87125,932.467508 C1395.12001,923.780081 1401.2766,914.417892 1400.53607,904.977561 C1400.53502,904.977561 1394.83479,891.754763 1394.83479,891.754763 C1407.60643,896.946945 1421.49254,907.869851 1435.12618,908.870906 C1462.66389,1000.81276 1516.92062,949.308044 1569.13009,913.525601 C1600.63873,891.511891 1635.10524,867.202512 1668.26501,843.731569 C1696.39852,821.354607 1751.32394,800.121255 1724.39893,755.798164" id="ðŸŽ¨-Background" fill="#FFFFFF"></path>
            <path d="M532.715041,62.0232629 C559.30998,55.560414 563.854211,-8.19594395 579.913166,0.883297607 C589.195897,8.95631551 574.011157,24.1869306 571.324106,33.2989035 L570.145203,35.6133013 C564.696847,46.2261815 558.53537,56.8036667 547.797367,62.9228458 C540.8955,70.1891955 520.264863,63.0548269 523.298222,74.6279827 C533.89122,109.506883 590.109178,133.658363 623.241727,144.518821 C674.74019,163.863022 758.050376,157.317817 770.150023,92.4739347 C741.902732,87.3023885 721.018699,36.3334122 738.428043,15.1129683 C739.021411,35.7262993 744.653132,56.9995356 760.833506,70.9652441 L761.726347,71.7849072 C764.573399,74.3829781 768.260422,77.4849801 771.935407,76.9075597 C775.518845,71.9165637 782.475614,74.7557404 784.523897,80.0233687 C945.354177,107.825972 981.18328,281.292384 1082.46767,383.396105 C1102.69921,404.696793 1123.84931,425.091564 1144.72701,445.745017 C1166.0492,462.662878 1181.13786,486.248423 1182.18946,513.941218 C1184.0952,529.343936 1183.1513,544.760381 1181.11252,560.187384 L1180.97102,561.581144 C1180.02625,571.141723 1179.46521,581.411143 1174.91489,589.898962 C1174.12936,592.775093 1174.44716,596.410379 1171.9586,598.440776 C1173.04609,616.041771 1172.01139,633.959521 1169.03399,651.507724 L1176.79388,654.970921 C1262.18198,693.001485 1348.55581,728.84779 1437.59125,757.356539 C1445.20052,755.974434 1444.5797,764.822444 1440.89595,768.844171 C1441.86731,773.574373 1441.97289,778.494627 1440.83261,783.172036 C1457.13651,785.514964 1473.69698,783.566923 1489.79078,780.595766 C1494.88192,769.38371 1508.40903,769.982376 1518.86794,769.667733 C1531.86186,768.852618 1544.83256,767.584544 1557.73251,765.782211 C1589.51678,758.681629 1620.7288,749.338425 1652.20689,741.128147 C1673.27147,735.201669 1695.98734,735.482525 1717.11844,740.938095 C1720.70821,744.960877 1724.02347,749.258181 1726.82138,753.819447 C1746.13753,783.769646 1727.10434,811.215373 1700.14092,826.947516 C1656.88204,857.610414 1613.61155,888.234244 1570.15946,918.61523 L1567.00269,920.867062 C1515.30516,957.868088 1457.1453,1004.70519 1429.53538,914.646296 C1420.25582,913.557716 1412.12392,907.329265 1403.47785,903.654912 C1405.80381,914.462578 1398.85866,925.378996 1394.07053,934.644067 C1392.00852,939.921198 1386.37258,941.662292 1381.16847,941.612667 C1376.71292,945.98388 1368.35086,944.262847 1365.43681,939.078631 C1341.80344,932.313809 1322.27824,916.518315 1301.35936,904.247243 C1271.61598,886.182731 1240.41452,870.782124 1210.24248,853.48099 C1260.36521,1060.99852 1248.10614,1277.15816 1234.76802,1488.39439 L1234.67348,1490.30296 C1233.02054,1521.14185 1225.94833,1535.73165 1200.36849,1554.63516 C1204.82403,1568.22815 1208.81079,1581.875 1211.85048,1595.8576 C1212.92425,1599.10116 1217.86441,1596.04871 1217.90453,1600.50228 C1226.99194,1598.3758 1245.46132,1600.65115 1239.01768,1613.22208 C1257.26322,1628.53294 1269.61627,1649.27509 1285.60976,1666.73143 C1313.77787,1700.49324 1350.59838,1725.62138 1386.70094,1750.38103 C1469.69438,1792.66882 1474.45083,1865.9521 1377.34853,1890.98732 L1376.37507,1891.21514 C1363.00337,1894.4331 1346.89938,1901.78964 1333.93655,1895.5961 C1314.54545,1891.86262 1295.30109,1884.30486 1276.32914,1878.54732 C1199.93772,1853.2703 1125.22187,1823.67065 1052.8267,1789.65332 C1050.20195,1788.41903 1048.71641,1785.59464 1048.64779,1782.76918 C1049.45548,1759.4286 1043.11742,1631.52522 1067.31988,1628.77156 C1072.7246,1602.64142 1073.57348,1575.66661 1072.59157,1548.99798 C1064.74053,1546.52835 1056.80185,1544.14636 1048.66996,1542.60271 C1040.77457,1540.11619 1028.42786,1539.5587 1023.14139,1533.16237 C1021.24092,1532.47607 1019.84725,1530.77615 1020.13232,1528.09429 C1024.40837,1488.01428 1027.64972,1447.82869 1030.01475,1407.5903 C1038.11391,1272.64547 1035.36457,1137.27935 1026.13991,1002.48234 C1007.131,1018.91979 985.469891,1033.31206 961.355063,1040.96801 C948.044395,1054.30444 926.702139,1057.16473 908.532608,1058.78018 C885.167408,1060.22669 862.213977,1055.55984 839.154964,1052.65626 C799.999592,1047.72732 761.116511,1052.09063 722.245999,1056.92447 L708.962341,1058.58168 C613.797457,1069.01874 510.951514,1071.1769 422.255612,1030.50456 C405.555776,1031.98802 384.823781,1013.9404 374.406048,1001.8805 C369.80586,1004.72073 365.285913,999.17225 361.620121,996.252829 C355.570298,994.415652 348.707496,991.776031 343.217255,987.922184 C329.288936,992.479226 321.775752,974.39782 316.48506,964.565758 C232.512877,820.775026 326.029633,677.644198 318.995789,525.164888 C323.254949,405.621717 268.725241,281.078047 321.427333,166.42451 C332.088959,117.906158 394.444373,84.3745205 441.3796,72.0432655 C456.504159,69.5461837 513.762095,48.8452173 520.067426,66.2529921 C523.051161,62.3347382 528.145471,62.0412123 532.715041,62.0232629 Z M1229.26208,1618.8222 C1221.39306,1619.66708 1213.71926,1620.15184 1205.94204,1621.57758 C1177.55151,1626.23607 1150.47055,1637.22697 1126.0731,1652.49827 C1118.17242,1657.42395 1111.12017,1663.63175 1102.05343,1666.37657 C1083.42083,1673.14199 1065.10902,1656.34461 1066.47452,1638.1838 C1061.28057,1683.8224 1062.1712,1730.78323 1064.86737,1776.65312 C1137.74631,1809.62054 1212.25773,1839.01516 1288.12304,1864.55182 C1305.20759,1871.71011 1325.43679,1874.00292 1341.12629,1883.68319 C1367.88118,1881.99553 1394.81229,1872.60252 1417.2839,1857.91524 C1454.55861,1832.0533 1429.81292,1791.03412 1398.913,1772.98631 C1330.89139,1742.29163 1272.99177,1680.17566 1229.26208,1618.8222 Z M1080.22947,1551.32866 C1078.80639,1564.85805 1089.08644,1585.93222 1087.63584,1612.89678 C1086.52066,1621.31692 1083.89457,1630.13717 1084.80661,1638.59012 C1088.99227,1669.94417 1122.94626,1630.09906 1136.9771,1625.73287 C1156.89496,1614.77769 1178.54061,1607.3197 1200.78618,1603.2414 C1200.65075,1596.00993 1195.86306,1593.12347 1195.23457,1585.97879 C1194.33205,1575.45123 1194.37755,1565.33754 1193.90249,1554.70836 C1164.96896,1567.86517 1110.91937,1558.56226 1080.22947,1551.32866 Z M1236.12248,1616.77694 C1235.61809,1617.11399 1235.08562,1617.39935 1234.53911,1617.65563 C1238.56017,1622.52506 1242.04337,1627.92859 1246.81291,1632.11638 L1244.78234,1628.96383 C1242.06609,1624.75685 1239.28749,1620.56738 1236.12248,1616.77694 Z M337.505114,494.952586 C336.047416,500.877045 333.392248,506.447978 329.414785,511.186278 C349.954784,677.712743 244.278042,816.537562 341.438148,971.369184 C342.666295,971.941157 343.786543,972.65243 344.865536,973.543103 C345.436767,973.163195 346.007998,972.762181 346.568651,972.361167 C392.108484,891.782619 456.934779,822.275233 508.586787,745.165459 C518.500825,725.810187 534.821116,706.328279 541.069752,683.9654 C437.269611,642.981739 395.806678,583.182064 337.505114,494.952586 Z M1703.54099,747.542026 C1699.13976,749.116737 1694.24247,747.816808 1689.54571,747.732259 C1672.87063,747.3761 1656.57446,751.727165 1640.62553,756.123675 C1594.23844,768.810143 1547.60648,780.041324 1500.08161,787.554495 C1499.12115,788.547937 1498.20291,789.562516 1497.3691,790.629938 C1498.19235,792.024984 1498.31901,793.768793 1497.12423,795.500975 C1489.95455,809.195681 1495.75004,825.96266 1490.54138,840.621216 C1482.99491,870.297659 1462.92127,903.770319 1432.96545,914.30292 C1442.95741,923.821998 1450.11548,936.0741 1460.40719,945.260269 C1485.70003,962.595835 1513.5555,936.758941 1534.20436,922.905707 C1573.51781,895.13477 1612.9347,867.558295 1652.45925,840.09279 C1670.16656,825.418381 1709.33753,806.92239 1717.8107,787.480515 C1723.23888,772.574655 1713.3588,758.05349 1703.54099,747.542026 Z M1432.60714,785.37931 C1415.68527,819.889054 1405.91626,856.578805 1396.14407,893.630483 C1406.30799,896.425661 1415.67045,900.805724 1425.6618,903.749683 C1439.73354,906.915231 1459.60083,879.723178 1466.65629,868.928661 C1473.92984,856.857373 1479.02239,843.593729 1481.38445,829.696975 C1483.37806,816.087231 1481.25422,801.953062 1487.17471,789.346797 C1468.84259,791.219745 1450.24579,791.612273 1432.60714,785.37931 Z M426.580567,714.176256 C442.471624,709.72483 406.321774,745.671734 404.239629,749.508258 C380.734462,777.259193 359.198779,806.56879 337.827811,835.969195 L331.34918,844.892929 C330.726838,845.797094 326.436461,852.137383 329.538839,851.331184 C329.822816,851.257099 329.955268,851.629639 329.72957,851.785217 C309.965617,855.280951 417.050383,716.619989 426.580567,714.176256 Z M813.984812,697.207748 C815.270358,693.336571 809.169283,691.680509 807.883736,695.53059 L803.83287,707.728822 C788.546104,753.819723 773.353125,799.973695 755.081511,844.98757 C753.553607,848.763814 759.66522,850.409328 761.182586,846.675277 C781.055864,797.689589 797.293787,747.353735 813.984812,697.207748 Z M991.681151,681.071121 C986.108894,707.513258 972.028447,731.353544 963.492829,756.629117 C979.523882,753.0957 991.873152,738.157979 1001.21792,725.309959 L1001.49837,724.882226 C1005.90676,718.097026 1011.031,707.4971 1021.04258,712.284898 C1036.24022,721.112643 1025.35311,752.421263 1025.06933,767.26098 C1023.14193,787.602626 1016.52844,806.631228 1012.02063,826.391172 C1023.60611,818.473916 1026.93554,802.863866 1032.58165,790.698712 L1054.31366,738.565803 L1054.31366,738.565803 C1070.28986,716.677168 1062.87038,782.225047 1062.04541,788.41195 C1060.7457,801.999744 1055.02048,815.669734 1057.26753,829.352371 C1066.27682,819.657342 1071.95246,807.475327 1076.72085,795.114166 C1083.33645,777.922351 1089.37394,760.509236 1095.66779,743.203609 C1097.84415,737.659528 1106.09493,739.604857 1104.89862,745.711671 C1104.49267,765.352114 1104.17045,784.991881 1103.85687,804.632054 L1103.62213,819.362276 C1103.57993,822.154866 1102.19794,830.311335 1107.02224,828.057241 C1132.35586,801.467571 1138.8512,748.300876 1135.55553,712.579964 C1085.75546,713.782359 1034.94685,707.323573 991.681151,681.071121 Z M1434.8372,780.266164 C1434.63264,780.91514 1434.39739,781.564116 1434.16214,782.213093 C1434.30534,782.242592 1434.45876,782.272091 1434.60196,782.311422 C1434.69401,781.623114 1434.77583,780.944639 1434.8372,780.266164 Z M329.584008,780.266164 C324.060104,776.18591 416.906919,656.978227 410.891789,691.390453 C384.988912,722.037433 354.782269,748.893711 329.584008,780.266164 Z M1149.54958,516.848373 C1062.71879,496.452017 986.254154,572.650184 899.055411,561.138208 C900.065169,588.429494 901.467201,615.905673 900.916327,643.209637 C1016.71503,652.760689 1003.53953,702.044752 1136.84248,697.083276 C1154.06865,685.545943 1161.1433,614.836462 1159.6884,593.490283 C1160.80178,568.25184 1139.08298,556.922644 1117.44877,552.495773 C1109.63081,557.215303 1095.60521,543.133841 1107.21373,538.179761 C1122.49228,533.583845 1136.7875,526.357164 1149.54958,516.848373 Z M508.972293,69.5387931 C478.081443,72.5834758 447.485083,81.0033 419.093704,94.0133579 C314.143344,124.311432 299.010353,247.165329 311.630151,340.263412 C316.859198,411.061252 337.049185,480.302992 379.49798,537.874502 C492.508291,710.2219 679.685775,682.931584 856.982535,660.135498 C863.373709,655.688742 874.203345,658.846308 880.362304,652.972159 C879.718437,652.750612 879.137901,652.444667 878.641806,652.064873 C881.601485,649.755514 883.890908,645.704377 884.573829,641.398989 L885.851008,641.525587 L885.851008,641.525587 C887.103911,614.796522 886.102222,588.591784 886.506486,562.072661 C828.249168,546.095989 765.770824,537.930416 706.729254,522.017044 C700.018257,526.698006 692.28024,521.311259 685.724405,518.767694 C668.730207,511.538946 651.584914,504.672464 634.313431,498.135055 L629.992946,496.50754 C618.734065,492.287605 607.483524,487.959307 596.330282,483.44855 L592.152551,481.748319 C585.763488,479.135125 569.628809,469.463035 562.65921,475.501761 L563.221657,476.713953 C567.354274,485.732006 581.591334,519.097693 564.089439,512.498981 C549.877917,502.518836 542.509332,432.926843 528.432916,432.311787 C523.592301,445.268041 520.123862,458.715917 519.331167,472.565742 C519.046176,475.682163 514.949703,478.310128 512.48823,475.398373 C495.793069,453.411459 521.011555,429.462276 521.684977,406.254747 C523.275645,379.269321 511.336658,354.020398 505.388802,328.191235 L505.022974,326.409891 C501.535559,309.653114 496.108379,289.336443 497.548399,274.307947 L501.011923,287.353627 C504.487124,300.40712 508.046338,313.463136 512.130409,326.333409 C522.265513,358.478759 540.565064,391.596805 530.396184,425.992435 C550.79622,426.671845 554.245659,458.87311 561.908735,473.579581 C574.306874,457.490026 661.55194,496.068667 681.460104,502.257201 L685.299772,497.900544 C747.650892,427.196984 792.66176,379.347285 889.300448,435.275236 C872.606343,381.417268 870.993508,324.212892 868.145715,268.2861 C869.122071,257.646591 862.972611,229.580862 871.644764,223.773177 C873.14888,223.992614 874.612886,224.447311 875.994562,225.052872 L875.992889,230.565602 C876.034418,241.244322 876.532565,258.952037 881.010393,262.974258 L883.064848,284.119272 C888.446283,339.10147 894.54859,394.042113 910.966053,447.026699 C950.376005,469.061086 986.336518,496.651018 1020.16594,526.416325 L1024.01944,525.009931 C1065.81951,509.705012 1116.11401,490.086888 1158.85072,509.188443 C1158.13613,498.4044 1153.97421,488.083496 1148.16885,478.963162 C1138.48657,476.560965 1132.15028,466.349778 1125.22185,459.551464 C1103.25436,435.951481 1080.70318,412.891649 1059.24129,388.815868 C967.663313,290.288839 928.701956,128.501827 784.890515,90.2861008 C775.383445,169.901494 673.53737,182.605607 612.164156,155.358545 L609.83482,154.466209 C571.682899,139.739838 528.56796,117.513856 515.169251,77.0217918 L514.612431,75.8496585 C513.234712,72.9940078 511.591774,70.0830048 508.972293,69.5387931 Z M531.607892,522.606809 C531.719678,522.483693 531.935936,522.648899 531.840866,522.785695 C513.959358,545.226441 499.409477,575.833868 517.180244,602.640489 C520.464859,608.675267 512.788222,614.473284 507.873837,609.872752 C483.208932,581.859175 510.57445,543.890056 531.607892,522.606809 Z M1153.70978,527.676724 C1143.87688,534.697484 1133.33418,540.528993 1122.16517,545.12952 C1122.20066,546.41579 1121.57332,547.791776 1121.00652,548.801597 C1135.7089,549.969985 1151.01983,553.768289 1161.3402,564.491379 C1161.84124,560.568934 1162.33184,556.636056 1162.70762,552.703179 C1163.65751,542.584104 1161.92474,533.529096 1153.70978,527.676724 Z M477.579687,428.475835 L477.693737,427.935134 C477.773468,427.321723 478.705053,427.279346 478.677966,427.935134 C478.335776,435.957147 472.499727,441.663243 467.556448,447.375696 C460.22126,455.850086 452.885023,464.322357 445.546687,472.793569 C433.277661,487.556742 415.20301,502.398314 419.267158,523.78611 C419.343741,531.382232 409.824362,533.010578 405.962687,527.424197 C390.603063,498.128806 438.952151,473.203569 455.249656,454.303316 C462.902478,446.123224 474.962237,440.104111 477.579687,428.475835 L477.579687,428.475835 Z M707.788787,516.427802 C708.017898,516.792303 708.181549,517.18718 708.268829,517.592182 C710.843598,517.865558 713.407458,518.159184 715.971317,518.47306 L707.788787,516.427802 L707.788787,516.427802 Z M323.209909,447.911638 C323.66876,450.972615 324.098402,454.040653 324.509588,457.112223 L324.914826,460.18319 L324.977972,459.915272 C325.187779,459.118063 325.583804,458.425525 326.101408,457.872041 L326.278357,457.692744 C325.212425,454.448417 324.189924,451.188397 323.209909,447.911638 Z M1029.08931,416.22591 C1035.2506,415.568726 1007.3341,435.642981 1005.79196,438.127177 C1003.5411,440.08417 1000.91094,436.60692 1003.31248,434.911968 C1011.98546,428.791426 1020.53375,422.509708 1029.08931,416.22591 Z M974.777776,357.172936 C979.064745,355.417111 981.975949,362.556908 977.909992,364.545724 C963.099119,371.79257 947.438043,376.918363 933.791441,386.452086 C933.192915,386.86979 932.442114,385.895847 933.009973,385.447707 L934.649755,384.150849 C947.219278,374.167058 959.775326,363.316226 974.777776,357.172936 Z M328.32399,266.90625 C332.463251,286.401429 354.859367,292.804319 372.240466,297.997516 L377.671196,300.066074 C393.019843,305.941025 408.920517,312.549942 419.962784,324.964149 C424.290913,338.966891 393.408415,314.574572 389.097168,313.339411 C368.008354,300.260918 329.903514,298.0389 328.32399,266.90625 Z M785.522816,84.8782328 C785.639155,85.8695571 785.697325,86.8817514 785.72641,87.8939457 C787.025532,87.8939457 788.314959,87.9043807 789.614081,87.9461207 C788.10167,87.0591463 786.715294,86.046952 785.522816,84.8782328 Z" id="ðŸ–-Ink" fill="#000000"></path>
        </g>
        <g id="Head" transform="translate(345.000000, 180.000000)">
            <g id="head/mono/Bun-2">
                <path d="M397.5017,243.7566 C395.1257,213.0126 398.8077,180.7886 386.9537,151.5666 C366.2857,103.0816 308.3297,86.9156 263.3987,68.4566 C245.398536,63.1379728 184.830055,62.3945685 163.754,55.3552 C116.053659,39.423363 104.656889,20.4408103 66.7547,50.7756 C60.3567,55.9576 56.3537,61.5896 53.4337,69.2846 L53.5537,69.3176 C52.7197,72.5256 53.6137,75.7266 55.4927,78.1716 C39.0587,94.9696 32.1817,120.1536 40.6137,142.5146 C68.1307,200.7036 66.8367,232.1666 57.9707,294.7226 C46.3927,353.1226 72.8497,374.4556 116.6657,406.2316 C114.8817,409.6906 114.5117,414.2876 116.8377,417.3396 C167.5047,488.5386 263.037604,522.532978 344.890604,486.394978 C378.115604,471.606978 392.9487,436.2236 401.4137,404.2966 C411.2747,368.5476 414.3047,330.8776 406.2767,294.4616 C403.0387,277.6196 398.8207,260.8996 397.5017,243.7566 Z" id="ðŸŽ¨-Background" fill="#FFFFFF"></path>
                <path d="M105.244,-96.8628 C111.394175,-97.7863088 116.038608,-93.970587 118.247976,-88.5923941 L118.364,-88.3028 C119.074,-86.4728 119.864,-84.6928 120.714,-82.9428 C136.104,-90.4928 158.064,-88.5528 167.804,-73.2628 C174.754,-62.3428 170.514,-49.3828 167.894,-37.8028 L166.174,-30.1728 C169.49875,-28.05705 172.005962,-24.2682 171.888262,-20.3448366 L171.874,-20.0428 L171.174,-9.4028 C173.394,-11.6528 175.424,-14.1028 177.234,-16.7128 C178.484,-19.0028 179.834,-21.2528 181.284,-23.4328 C189.814,-36.2628 208.964,-25.1128 201.924,-11.3728 C200.574,-8.7228 199.054,-6.2128 197.424,-3.7928 C195.584,-0.2228 194.074,3.4472 192.914,7.2172 C196.244,8.6672 198.804,11.8872 199.074,16.7472 C199.704,28.0972 193.744,37.5672 184.264,43.5172 C181.474,45.2672 178.594,45.6072 175.984,44.9572 C175.524,45.5772 175.064,46.1972 174.624,46.8272 C178.404,49.8972 181.814,53.3972 184.744,57.2772 C193.564,55.9572 202.434,55.3372 211.304,55.3172 C222.144,50.0072 235.124,50.1172 246.774,52.1072 C254.274,53.3872 261.474,55.8772 268.854,57.6672 C276.634,59.5472 284.534,59.6172 292.404,60.8972 C302.324,62.5072 311.024,67.0872 316.494,74.3972 C322.504,74.5772 328.824,77.0372 334.064,80.3772 C346.264,88.1572 358.394,96.0472 370.564,103.8772 C375.234625,106.883242 376.98101,111.682178 376.122343,117.034803 L376.064,117.3772 L375.654,119.5972 L376.616833,120.963599 C380.341184,126.22304 384.3936,131.732 386.804,137.5372 C391.264,143.9672 395.294,150.7072 398.864,157.6572 C403.674,166.9972 407.644,176.8972 410.334,187.0572 C411.004,189.6272 411.674,192.2172 412.114,194.8372 C412.744,198.5372 411.774,201.4072 411.244,204.9572 C410.584,209.4572 410.344,214.0172 409.644,218.5272 C409.174,221.5172 406.634,222.9872 403.974,223.0672 C404.974,230.6772 405.694,238.3372 406.384,245.9372 C407.354,256.7972 408.014,267.6872 408.584,278.5772 C411.524,282.8472 417.534,286.2272 421.874,287.3972 C427.884,289.0072 434.184,287.2572 439.864,285.2072 C443.434,283.9172 446.364,288.4072 444.624,291.4072 C439.154,300.8272 427.454,300.7872 418.594,296.6172 C414.844,294.8572 411.554,292.3072 409.114,288.9872 C409.264,292.1472 409.424,295.3072 409.584,298.4772 L409.733019,301.348481 C411.534571,334.880433 415.424,369.565811 409.124,402.7672 C398.214,460.2772 350.621536,504.066686 292.484,507.4672 C261.975969,509.251641 236.570564,500.240629 223.937282,495.213915 C211.304,490.1872 216.214126,479.938033 224.9842,482.867831 C240.09212,487.9149 267.846269,495.434144 292.684,492.1872 C351.224,484.534485 400.864,455.275433 395.764,329.2572 C395.040771,311.386598 392.814,293.5072 392.334,275.6372 C391.874,258.1672 392.044,240.6872 391.274,223.2272 L391.017237,217.269998 C390.716593,210.309175 390.395111,203.316089 389.874,196.3472 C389.244,193.6472 388.724,190.9072 387.954,188.2572 C385.864,181.0472 383.134,174.0372 379.744,167.3472 C378.994,167.9172 378.154,168.3272 377.244,168.4872 C370.334,169.7272 363.854,169.3772 357.384,166.4972 C354.364,165.1672 351.704,163.3972 349.224,161.2072 C348.044,160.1772 347.254,159.1772 346.634,158.1372 C343.504,158.1872 340.374,157.2472 338.414,154.9972 C336.178516,152.432684 335.806716,149.783881 336.682306,147.331747 L336.774,147.0872 L336.554,147.0072 C333.914,153.8372 328.654,159.8472 322.884,163.9072 C313.764,170.3472 302.354,172.2072 291.414,172.3772 C279.334,172.5572 266.594,170.6972 254.674,168.7972 C251.524,168.2972 248.394,167.7272 245.324,166.9572 C245.204,167.0772 245.084,167.2172 244.954,167.3372 C234.724,177.1272 220.334,179.6472 207.354,174.0572 C199.854,170.8272 193.564,165.6272 188.004,159.6672 C187.924,162.7872 187.764,165.9072 187.494,168.9972 L187.38219,170.224228 C186.828578,175.979244 185.763333,182.083867 181.414,186.2372 C174.384,192.9672 164.184,190.2672 156.074,185.8872 C156.084,186.0972 156.084,186.3172 156.084,186.5372 C158.274,193.9772 160.474,201.4272 162.674,208.8772 L163.147862,210.46421 C164.747636,215.754142 166.502182,221.050836 166.984,226.5872 C167.904,237.1672 160.864,247.6172 149.104,244.0672 C142.935429,242.211771 137.993633,237.025176 133.251896,232.870958 L130.264,230.2872 C137.994,255.5572 143.354,281.7272 143.854,308.0972 C143.884,309.5272 142.654,310.6072 141.294,310.6572 C138.114,310.7872 134.694,310.1572 131.494,308.8872 C131.314,308.8772 131.134,308.8672 130.944,308.8372 C125.484,308.0472 120.414,306.0772 115.944,303.1672 C116.974,306.4372 117.434,309.9472 117.164,313.6172 C117.094,314.5072 115.704,314.8172 115.504,313.8372 C112.924,301.1472 98.074,291.5572 85.274,293.9872 C71.534,296.5972 61.414,308.4172 58.934,321.8672 C56.274,336.3172 61.364,353.0272 70.794,364.1772 C75.134,369.3172 80.844,373.6072 87.624,374.6872 C90.724,375.1772 93.944,375.0072 96.954,374.1272 C98.234,373.7472 99.434,373.2172 100.654,372.7172 C102.434,371.9972 104.514,371.8872 106.194,371.1272 C110.004,369.4172 113.834,372.9272 111.904,376.8372 C110.224,380.2472 108.714,382.5472 105.924,384.3072 C108.184,387.0672 110.234,390.9072 110.994,391.9372 C114.874,397.1772 118.814,402.1272 123.234,406.9172 C127.734,411.7772 132.644,416.2172 137.834,420.3272 L140.015504,422.05095 C145.014625,426.015794 149.36775,429.6897 152.894,435.3772 C155.674,439.8672 152.074,445.9572 146.864,445.8872 C130.564,445.6572 118.714,431.3372 110.274,418.8272 C109.074,417.0372 107.944,415.1472 106.894,413.2072 C106.514,413.8172 106.094,414.3872 105.624,414.9072 L106.554,417.4072 C109.314,424.7672 97.424,429.5772 93.974,422.7072 C91.464,417.7272 88.554,412.9872 85.314,408.5072 C83.404,408.2372 81.534,407.0772 80.494,405.5772 C77.864,401.7672 74.914,397.9172 72.424,393.8572 C71.044,392.5472 69.624,391.2872 68.174,390.0572 C67.754,390.4272 67.324,390.7972 66.914,391.1872 C65.094,395.3372 62.844,399.1272 60.054,402.6972 L59.4558229,403.45882 C54.110919,410.195002 47.1489091,417.089382 38.534,418.7372 C35.904,419.2372 33.374,415.9672 35.704,413.8772 C41.734,408.4572 48.864,404.7672 54.424,398.7172 C57.1632857,395.736486 59.6783878,392.453986 61.8412012,389.013818 L62.334,388.2172 C62.694,387.6272 63.064,387.0372 63.444,386.4372 C60.934,384.7272 58.424,383.0072 55.914,381.2872 C49.0043226,387.190426 40.0061956,389.890738 32.3636123,394.780705 L31.604,395.2772 C24.694,399.8972 17.414,389.6772 22.954,384.0672 C29.061,377.9062 34.159,370.5592 39.569,363.7112 C37.025,359.0252 35.821,353.4842 35.37,347.8842 C35.192,346.2992 35.053,344.7132 34.914,343.1272 C31.034,343.1872 27.134,341.8572 23.834,339.5672 L22.584,338.6772 C18.574,339.9572 14.364,340.5772 10.334,340.4672 C0.854,340.1872 -3.026,329.3572 2.904,322.5072 C8.954,315.5072 19.544,313.9772 27.934,317.3772 C28.204,317.2372 28.484,317.0872 28.754,316.9372 C28.354,315.0972 28.443,313.4282 28.898,311.9622 L28.766,311.0682 C26.921,308.2372 25.708,305.0052 25.248,301.5902 C24.884,298.8852 24.958,296.2042 25.584,293.5332 C25.792,292.6442 26.225,291.7232 26.556,290.7962 C25.874,289.0742 25.473,287.2942 25.349,285.5042 C25.158,285.2772 24.968,285.0442 24.788,284.7922 C20.625,278.9472 21.466,271.9042 25.428,267.1742 C25.446,266.8732 25.474,266.5722 25.515,266.2732 C25.283,265.7512 25.07,265.2242 24.876,264.6912 C21.005,260.7862 18.163,256.0872 18.693,250.2642 C19.004,246.8382 20.412,243.7542 22.543,241.4492 C22.165,240.3312 22.129,239.0362 22.587,237.9552 C19.186,228.9092 19.616,218.0142 22.064,207.8972 C21.524,206.3572 21.244,204.6872 21.304,202.9172 C21.584,195.4072 28.084,188.5072 35.784,188.5972 C36.711,188.6052 37.579,188.7262 38.413,188.9032 L38.424,188.7242 C38.719,186.4702 39.339,184.3872 40.244,182.5182 C39.799,182.3572 39.387,182.1262 39.026,181.8192 C34.092,184.4512 28.871,186.4632 23.397,187.8342 C19.372,188.8422 15.249,184.2672 17.751,180.4892 C18.912,178.7362 20.193,177.1622 21.573,175.7242 C19.611,175.7352 17.619,175.8682 15.604,176.1272 C11.984,176.5972 7.944,174.1272 5.594,170.7872 C2.674,173.6272 -0.256,176.4572 -3.186,179.2872 C-10.606,186.4772 -21.816,181.1872 -22.986,171.7072 C-25.196,171.1172 -27.256,170.1172 -29.066,168.6872 C-40.766,173.7672 -53.356,176.5572 -66.226,177.0872 C-75.466,177.4672 -80.866,166.7072 -76.546,159.1072 C-73.646,154.0072 -70.046,149.4272 -65.896,145.4472 C-72.336,147.4172 -78.986,148.8372 -85.776,149.7472 C-89.446,150.2372 -94.636,147.1972 -96.106,143.8272 C-101.726,130.8672 -101.246,117.3572 -94.776,104.7472 C-94.526,104.2472 -94.246,103.7672 -93.976,103.2872 C-93.306,101.6172 -92.576,99.9672 -91.786,98.3472 C-99.746,90.0472 -100.436,77.7072 -96.146,67.3772 C-97.866,64.5872 -98.526,61.2272 -97.356,58.1872 C-94.026,49.4372 -89.226,41.3572 -83.166,34.4172 C-83.746,33.2972 -84.256,32.1072 -84.686,30.8272 C-88.096,20.4772 -84.146,7.9872 -76.176,0.7772 C-71.166,-3.7628 -65.406,-6.4828 -59.256,-8.2228 C-56.666,-12.8028 -53.336,-16.9328 -49.456,-20.4128 C-49.306,-20.7428 -49.156,-21.0728 -48.986,-21.4028 C-42.946,-32.7828 -31.946,-38.8828 -20.156,-40.2928 C-19.696,-44.7428 -16.696,-48.9928 -12.336,-50.3728 C-11.136,-54.2228 -9.346,-57.9028 -6.886,-61.2428 C-3.016,-66.5028 3.414,-68.9828 9.474,-65.5328 C12.794,-63.6428 15.974,-61.4728 18.954,-59.0728 C20.2924615,-59.7004923 21.809858,-60.1066462 23.5219199,-60.2362046 L23.954,-60.2628 L33.814,-60.7628 C37.944,-62.5928 42.064,-64.5128 46.194,-66.3828 C48.674,-68.4328 51.444,-70.1428 54.464,-71.4128 C57.884,-72.8428 61.384,-73.6528 64.894,-73.9228 C67.744,-74.8528 70.614,-75.6728 73.534,-76.3128 C80.394,-77.8128 87.574,-78.6528 94.694,-78.5828 C94.8397143,-80.4256571 94.9119592,-82.2905551 94.8981399,-84.1774939 L94.884,-85.1228 C94.724,-91.1728 99.554,-96.0028 105.244,-96.8628 Z M98.334,387.1872 C97.354,387.3972 96.364,387.5672 95.374,387.6872 C95.674,388.4272 95.974,389.1672 96.264,389.9072 C97.064,390.3572 97.874,390.7872 98.684,391.1872 C98.444,389.8272 98.304,388.4572 98.334,387.1872 Z M46.957,371.9202 L46.2921852,373.144348 C46.1844444,373.344644 46.0783333,373.542533 45.974,373.7372 C47.384,373.6272 48.804,373.6572 50.204,373.8172 L50.2,373.6682 C50.02,373.6072 49.84,373.5512 49.668,373.4672 C48.702,373.0032 47.804,372.4832 46.957,371.9202 Z M74.724,316.0673 C83.5712222,316.582578 91.0667855,317.939098 99.1129371,321.809367 L99.804,322.1473 C106.914,325.6773 118.674,332.1973 117.684,341.5473 C117.404,344.2073 115.474,347.0073 112.434,346.7973 C104.104,346.2273 99.344,337.8273 93.704,332.5873 C88.014,327.3073 81.024,321.8773 74.134,318.2473 C73.1600714,317.736229 73.5437194,316.118639 74.6034989,316.066514 L74.724,316.0673 Z M34.604,192.8772 C32.484,192.9472 33.194,195.0072 34.284,193.2872 C34.374,193.1472 34.484,193.0072 34.604,192.8772 Z M149.04,55.3552 C128.962,55.8832 108.755,67.7382 93.714,79.7212 C80.629,90.1462 69.33,102.5462 59.325,115.9112 C56.751,122.5672 54.541,129.3622 52.674,136.2072 C51.444,140.7272 50.674,145.2972 49.644,149.8572 L49.324,151.2552 C48.515,152.7672 47.914,154.3942 47.476,156.0752 C49.299,157.9032 51.664,159.2122 54.268,159.8332 C55.107,160.0332 55.804,160.4662 56.355,161.0402 C58.451,157.5422 60.283,153.8502 61.349,149.9362 L61.388,149.7552 C65.417,143.1562 69.793,136.7622 74.484,130.5872 C87.424,113.5372 101.674,97.9972 118.804,85.0672 C131.794,75.2672 146.314,67.5872 161.754,62.5972 C157.975,59.5482 153.683,57.1362 149.04,55.3552 Z" id="ðŸ–-Ink" fill="#000000"></path>
            </g>
            <g id="face/Smile" transform="translate(159.000000, 186.000000)" fill="#000000">
                <path d="M146.586567,240.926554 C139.864291,238.184203 133.866322,233.609781 129.481228,227.766254 C127.956691,225.734803 127.561405,223.589624 127.881219,221.627583 C128.240828,219.421406 129.546036,217.4219 131.326046,216.080693 C133.111571,214.735331 135.345035,214.071832 137.504329,214.410065 C139.380629,214.703969 141.248396,215.731287 142.726594,217.861908 L143.035427,218.287981 C145.642441,221.814933 149.039621,224.708755 152.91047,226.573991 C156.641339,228.371775 160.813939,229.21087 165.131898,228.722919 C173.355732,227.793938 179.024012,223.346401 185.048774,217.30672 C185.795561,216.544195 186.542826,215.757766 187.293714,214.958678 C187.767915,214.234308 188.425986,213.768756 189.156624,213.524488 C189.967867,213.253272 190.885573,213.268617 191.726122,213.56195 C192.536835,213.844871 193.261572,214.380994 193.747527,215.094538 C194.209389,215.772704 194.47125,216.610486 194.386283,217.574143 C193.834826,223.833283 190.562474,229.419299 185.914235,233.805502 C180.751772,238.67694 173.908551,242.047034 167.465957,243.229031 C160.36811,244.531047 153.135593,243.598228 146.586567,240.926554 L146.586567,240.926554 Z M170.814304,144.367155 C178.365682,148.9572 189.871664,159.660291 181.748119,171.039573 C172.185929,181.073062 158.418535,169.568982 151.634201,164.366134 C145.343449,160.333898 138.275437,170.704507 144.112,175.412823 C193.135736,211.708059 213.030606,145.567387 174.633685,138.970386 C170.406047,138.243425 168.835891,142.947174 170.814304,144.367155 Z M82.9633,102.1464 C83.7976284,91.7901242 99.5703,89.4384 101.1393,99.6864 C102.5443,108.8664 100.8903,117.2994 96.7553,125.5644 C92.8043,133.4604 82.8737826,129.776544 82.1227826,122.586544 C81.1160984,112.948648 82.4443,108.588596 82.9633,102.1464 Z M203.027,97.5615 C205.226,94.6815 208.401,92.7155 212.205,93.8265 C224.09,97.2995 220.587,114.1725 216.413,122.3855 C214.145,126.8455 206.814,127.9765 203.501,124.0495 C198.101,117.6455 195.515,104.8565 202.38,98.5485 C202.566,98.2225 202.773,97.8935 203.027,97.5615 Z M96.5879,56.8305 L98.465271,56.501905 C104.27307,55.49746 111.4944,54.5323 115.6029,59.2015 C117.7819,61.6775 118.5319,66.2795 115.6029,68.6495 C110.4509,72.8195 104.7549,71.2035 98.5809,71.5565 C93.4929,71.8485 88.6029,72.6905 83.7019,74.0915 C72.9499,77.1645 64.1889,82.7745 55.0059,88.9345 C53.8009,89.7425 52.5709,88.2015 53.1459,87.0745 C58.4469,76.6915 68.7199,68.1625 79.0099,62.9635 C84.5019,60.1885 90.5119,57.8865 96.5879,56.8305 Z M192.192876,52.1793876 L193.629806,52.4734684 C209.267042,55.742077 229.583473,62.2713911 236.988459,77.6308459 C237.270623,79.8027272 236.97249,80.2682047 236.730054,80.5723213 L236.649336,80.6735209 C236.449568,80.9332186 236.290169,81.2912104 235.348782,81.5868073 C235.087547,81.5245653 234.823712,81.4586426 234.557082,81.3887687 C231.162766,80.499243 228.477205,79.2737961 225.877298,78.0022488 L223.058339,76.6134493 C219.787784,75.0098309 216.488352,73.4645766 212.991711,72.3238115 C205.52958,69.8898666 197.854137,68.1753043 190.059777,67.259767 C188.37041,67.0615005 186.743655,66.4913394 185.460262,65.5141761 C184.242065,64.5866523 183.311441,63.3024737 182.887128,61.5955207 C182.33722,59.3864508 182.495251,57.7140037 183.680513,55.7210991 C184.571756,54.2244705 185.846982,53.1871113 187.311265,52.5914244 C188.804038,51.9841473 190.503545,51.840982 192.192876,52.1793876 Z" id="ðŸ–-Ink"></path>
            </g>
            <g id="facial-hair/*-None" transform="translate(123.000000, 338.000000)"></g>
            <g id="accessories/*-None" transform="translate(47.000000, 241.000000)"></g>
        </g>
    </g>
</svg>